<?xml version="1.0" encoding="UTF-8"?>
<svg version="1.1" xmlns="http://www.w3.org/2000/svg" width="217" height="240">
<path d="M0 0 C1.05581326 0.00334608 1.05581326 0.00334608 2.13295609 0.00675976 C3.24693082 0.00441978 3.24693082 0.00441978 4.3834101 0.00203252 C6.89081125 -0.00198027 9.39815267 0.00121324 11.90555435 0.00434887 C13.69553783 0.00299494 15.48552103 0.00121506 17.2755037 -0.00096118 C22.15146323 -0.00553684 27.0274017 -0.00374533 31.90336162 -0.0005821 C36.99536612 0.00194121 42.08736876 -0.00039599 47.17937332 -0.00196826 C55.73328593 -0.00379021 64.28718993 -0.00138317 72.84110123 0.00337231 C82.74254632 0.00881324 92.64397081 0.0070536 102.5454154 0.00154591 C111.03202257 -0.00298658 119.51862352 -0.00363505 128.0052315 -0.00101542 C133.08021883 0.00054682 138.15519647 0.00074257 143.23018318 -0.00255191 C148.0013824 -0.00543253 152.77255497 -0.00345139 157.5437513 0.00234234 C159.29898652 0.00366899 161.05422397 0.00327744 162.80945832 0.00107968 C165.19751363 -0.0016356 167.58548251 0.001754 169.97353226 0.00675976 C170.67517705 0.00452904 171.37682183 0.00229832 172.09972858 0 C176.88843603 0.01959342 176.88843603 0.01959342 179.11673599 1.13374341 C179.16339951 25.87211623 179.19869707 50.61048249 179.22036034 75.34889042 C179.23068508 86.83464412 179.24476821 98.32037051 179.2676149 109.80610669 C179.2875122 119.81383961 179.30044371 129.82155278 179.30491298 139.82930493 C179.30752659 145.13124749 179.3136944 150.43313348 179.32819611 155.73505795 C179.34172226 160.72047773 179.34596875 165.70581739 179.34295136 170.69125378 C179.34350376 172.52550834 179.34751066 174.35976544 179.35514694 176.19400418 C179.3650306 178.68946933 179.36272918 181.18462804 179.35724503 183.68009961 C179.36307071 184.4135541 179.36889639 185.14700859 179.37489861 185.90268898 C179.34497842 190.90550098 179.34497842 190.90550098 177.11673599 193.13374341 C174.41400772 193.41894543 174.41400772 193.41894543 170.8926149 193.4684602 C170.24429042 193.48008379 169.59596594 193.49170739 168.92799526 193.50368321 C166.73312315 193.54009423 164.53836676 193.56174136 162.34329849 193.58296216 C160.75732747 193.60479681 159.17136456 193.62722827 157.5854097 193.65020764 C153.22144565 193.70974924 148.85744305 193.75435877 144.49326569 193.79494488 C141.74763369 193.82118704 139.00206126 193.85101027 136.25647599 193.88172925 C103.36765057 194.24155101 70.483887 194.09326406 37.59512192 193.792225 C33.91843566 193.75864476 30.24173848 193.72650273 26.56503922 193.69438183 C20.75688915 193.6425582 14.94883866 193.58428684 9.14080864 193.52043355 C6.98250801 193.49713809 4.82419083 193.47532626 2.66585976 193.45504582 C-0.28573525 193.4265691 -3.23718266 193.39173927 -6.18868393 193.35493481 C-7.50042619 193.34395024 -7.50042619 193.34395024 -8.83866829 193.33274376 C-14.76877414 193.24823327 -14.76877414 193.24823327 -15.88326401 192.13374341 C-15.98087741 189.80607327 -16.01324165 187.50812321 -16.00351852 185.17999279 C-16.00437295 184.44409895 -16.00522737 183.7082051 -16.00610769 182.95001143 C-16.00776468 180.46557694 -16.00223757 177.98120886 -15.9967894 175.49678051 C-15.99650755 173.72325656 -15.99666522 171.9497325 -15.9972319 170.17620862 C-15.99751996 165.34583324 -15.99162191 160.51548247 -15.98465794 155.68511283 C-15.97842577 150.64289024 -15.97782072 145.60066714 -15.97663254 140.55844128 C-15.97351882 131.00324114 -15.96530488 121.44805238 -15.95528305 111.89285725 C-15.94412317 101.01758907 -15.93861178 90.14232036 -15.93358761 79.26704788 C-15.9231223 56.8892734 -15.90552208 34.51150904 -15.88326401 12.13374341 C-16.54326401 12.13374341 -17.20326401 12.13374341 -17.88326401 12.13374341 C-17.88326401 10.81374341 -17.88326401 9.49374341 -17.88326401 8.13374341 C-16.89326401 7.47374341 -15.90326401 6.81374341 -14.88326401 6.13374341 C-14.63576401 5.45311841 -14.38826401 4.77249341 -14.13326401 4.07124341 C-13.72076401 3.43186841 -13.30826401 2.79249341 -12.88326401 2.13374341 C-9.32076401 1.44624341 -9.32076401 1.44624341 -5.88326401 1.13374341 C-4.22260741 -0.52691319 -2.21847656 0.00911439 0 0 Z M-4.88326401 11.13374341 C-4.88326401 37.20374341 -4.88326401 63.27374341 -4.88326401 90.13374341 C10.62673599 90.13374341 26.13673599 90.13374341 42.11673599 90.13374341 C42.11673599 73.30374341 42.11673599 56.47374341 42.11673599 39.13374341 C45.41673599 39.13374341 48.71673599 39.13374341 52.11673599 39.13374341 C53.25713559 41.4145426 53.24243109 42.6661197 53.24371964 45.19946301 C53.24653946 46.05033993 53.24935929 46.90121686 53.25226456 47.77787793 C53.25024033 48.71346539 53.2482161 49.64905285 53.24613053 50.61299145 C53.24788285 51.59690365 53.24963516 52.58081585 53.25144058 53.59454358 C53.25585724 56.86153416 53.25292062 60.12847098 53.24954849 63.39546216 C53.25022186 65.66269961 53.25119215 67.92993699 53.25244766 70.19717419 C53.25392461 74.95785722 53.25177119 79.71852153 53.24710709 84.47920239 C53.24142602 90.57448433 53.24467852 96.66972208 53.25067955 102.76500237 C53.25429911 107.45164329 53.25313988 112.13827381 53.25055176 116.82491505 C53.24988551 119.07153655 53.25070036 121.31815901 53.25303131 123.5647794 C53.25557887 126.71238579 53.25168684 129.85992155 53.24613053 133.0075227 C53.24815476 133.93298901 53.25017899 134.85845532 53.25226456 135.81196606 C53.23635052 140.69357062 52.94254467 145.32052225 52.11673599 150.13374341 C48.80423599 150.82124341 48.80423599 150.82124341 45.11673599 151.13374341 C43.40755326 149.94995129 43.40755326 149.94995129 42.11673599 148.13374341 C41.75597245 145.95071423 41.75597245 145.95071423 41.77615982 143.38691723 C41.77649971 141.94576298 41.77649971 141.94576298 41.77684647 140.4754945 C41.79233032 139.44103695 41.80781418 138.4065794 41.82376724 137.34077466 C41.82801209 136.27960934 41.83225693 135.21844403 41.8366304 134.12512219 C41.85343894 130.73190576 41.89109581 127.33928068 41.92923599 123.94624341 C41.94427999 121.64742385 41.95796889 119.348595 41.97025162 117.04975903 C42.0007992 111.41067539 42.05951823 105.77287223 42.11673599 100.13374341 C26.60673599 100.13374341 11.09673599 100.13374341 -4.88326401 100.13374341 C-4.88326401 127.19374341 -4.88326401 154.25374341 -4.88326401 182.13374341 C32.73673599 182.13374341 70.35673599 182.13374341 109.11673599 182.13374341 C109.11673599 158.70374341 109.11673599 135.27374341 109.11673599 111.13374341 C96.24673599 111.13374341 83.37673599 111.13374341 70.11673599 111.13374341 C70.11673599 103.13374341 70.11673599 103.13374341 71.11673599 101.13374341 C72.89865593 101.11828221 72.89865593 101.11828221 74.71657425 101.10250866 C85.88587011 101.00495407 97.05510801 100.90223751 108.2243095 100.79440415 C113.96715889 100.73912728 119.71001333 100.6856998 125.45291764 100.63642895 C130.99018119 100.5888555 136.52738066 100.53651551 142.0645681 100.48080266 C144.18216036 100.46034719 146.29977021 100.44163952 148.41739327 100.42466938 C151.37249638 100.40069578 154.32747713 100.37063198 157.28250748 100.33906567 C158.16723236 100.33331021 159.05195725 100.32755475 159.96349198 100.32162488 C163.85373478 100.65571188 163.85373478 100.65571188 167.11673599 99.13374341 C167.21189811 96.39485921 167.24228194 93.68126399 167.23026139 90.94209301 C167.23048043 89.65440266 167.23048043 89.65440266 167.23070389 88.34069836 C167.23000446 85.48913602 167.22221069 82.63763815 167.21439224 79.78608716 C167.21252817 77.81453499 167.21110422 75.84298236 167.21010453 73.87142956 C167.20627851 68.67148074 167.19644751 63.47155965 167.18540055 58.27162182 C167.17339405 52.03834875 167.16878458 45.80506641 167.16294724 39.57178509 C167.1532358 30.09241854 167.13407983 20.61311292 167.11673599 11.13374341 C140.71673599 11.13374341 114.31673599 11.13374341 87.11673599 11.13374341 C86.82733928 30.50561451 86.82733928 30.50561451 86.54862076 49.87763989 C86.51051722 52.29504515 86.47204977 54.71244471 86.43314224 57.12983716 C86.41666641 58.3986372 86.40019058 59.66743725 86.38321549 60.97468579 C86.3630336 62.17242627 86.34285172 63.37016675 86.32205826 64.60420239 C86.30651398 65.65011044 86.2909697 66.69601849 86.27495438 67.77362072 C86.11673599 70.13374341 86.11673599 70.13374341 85.11673599 71.13374341 C83.30423599 71.26655591 83.30423599 71.26655591 81.11673599 71.25874341 C80.39486099 71.26132153 79.67298599 71.26389966 78.92923599 71.26655591 C77.11673599 71.13374341 77.11673599 71.13374341 76.11673599 70.13374341 C75.99336426 68.29342351 75.93882292 66.44844929 75.91141373 64.60420239 C75.89123184 63.40646191 75.87104996 62.20872143 75.8502565 60.97468579 C75.82554276 59.07148571 75.82554276 59.07148571 75.80032974 57.12983716 C75.78167862 55.97101025 75.7630275 54.81218335 75.74381119 53.61824048 C75.67526283 49.26932258 75.61527461 44.92027318 75.55423599 40.57124341 C75.40986099 30.85686841 75.26548599 21.14249341 75.11673599 11.13374341 C48.71673599 11.13374341 22.31673599 11.13374341 -4.88326401 11.13374341 Z M120.11673599 111.13374341 C120.11673599 134.56374341 120.11673599 157.99374341 120.11673599 182.13374341 C135.29673599 182.13374341 150.47673599 182.13374341 166.11673599 182.13374341 C167.55545733 179.25630073 167.23610752 176.78808418 167.23026139 173.57270825 C167.23040741 172.89941983 167.23055344 172.22613141 167.23070389 171.5324403 C167.23000626 169.30315459 167.22222089 167.07395205 167.21439224 164.84468091 C167.21252753 163.30054278 167.21110388 161.75640406 167.21010453 160.21226513 C167.20628354 156.14503868 167.19645681 152.07784786 167.18540055 148.0106355 C167.17338051 143.13228605 167.16878219 138.25392471 167.16294724 133.37556469 C167.15324485 125.96159948 167.13408538 118.54771245 167.11673599 111.13374341 C151.60673599 111.13374341 136.09673599 111.13374341 120.11673599 111.13374341 Z " fill="#C9F93C" transform="translate(27.883264005184174,20.866256594657898)"/>
<path d="M0 0 C0.33 44.22 0.66 88.44 1 134 C1.33 134 1.66 134 2 134 C2.061875 135.093125 2.12375 136.18625 2.1875 137.3125 C2.59639622 141.12136664 2.59639622 141.12136664 5.4375 142.75 C6.283125 143.1625 7.12875 143.575 8 144 C10.03412966 147.05119449 10.2788268 147.90876118 10.44921875 151.38671875 C10.49240234 152.24330078 10.53558594 153.09988281 10.58007812 153.98242188 C10.61552734 154.87509766 10.65097656 155.76777344 10.6875 156.6875 C10.73455078 157.56083984 10.78160156 158.43417969 10.83007812 159.33398438 C11.07450877 164.69943734 10.82184702 169.69198049 10 175 C10.75015381 174.96970703 11.50030762 174.93941406 12.27319336 174.90820312 C34.09497408 174.07291965 55.91097861 173.88722799 77.74617386 173.87661743 C79.92648017 173.87500813 82.10677578 173.87145255 84.28707886 173.86743164 C87.78826251 173.86149883 91.2894027 173.86140569 94.79058838 173.86568069 C96.70601404 173.8671334 98.62144148 173.86423855 100.53686523 173.86117554 C101.7221582 173.86428741 102.90745117 173.86739929 104.12866211 173.87060547 C105.1459288 173.87140106 106.1631955 173.87219666 107.21128845 173.87301636 C112.81697239 174.06089822 118.40768929 174.56982225 124 175 C123.67 151.9 123.34 128.8 123 105 C111.28726744 105.11865962 111.28726744 105.11865962 99.57495117 105.27026367 C98.10596367 105.27902597 96.63696889 105.28667052 95.16796875 105.29296875 C94.40601196 105.30831665 93.64405518 105.32366455 92.85900879 105.33947754 C87.51184738 105.34213122 87.51184738 105.34213122 85.0090332 103.66918945 C83.43627695 101.06746322 83.69102921 98.96611956 84 96 C84.99 94.515 84.99 94.515 86 93 C89.04748367 92.68414579 91.89578817 92.56265624 94.94775391 92.56762695 C96.33807579 92.55233948 96.33807579 92.55233948 97.75648499 92.53674316 C100.82990451 92.506472 103.90301312 92.4973257 106.9765625 92.48828125 C109.10363818 92.47144503 111.23070384 92.45329624 113.35775757 92.43388367 C118.96371329 92.38626277 124.56962843 92.35653169 130.17572021 92.33044434 C135.89327005 92.30069968 141.61067985 92.25414853 147.328125 92.20898438 C158.55201027 92.12281377 169.77592426 92.05552981 181 92 C180.99770889 91.08557632 180.99541779 90.17115265 180.99305725 89.22901917 C180.91934735 55.24075623 180.91934735 55.24075623 181.37231445 38.40014648 C181.44072347 35.81572063 181.49880125 33.23116664 181.55664062 30.64648438 C181.59837055 28.981756 181.64066166 27.31704156 181.68359375 25.65234375 C181.70030624 24.88921371 181.71701874 24.12608368 181.73423767 23.33982849 C181.88504713 18.11495287 181.88504713 18.11495287 183 17 C183.2819396 14.71315662 183.44777005 12.42636727 183.62109375 10.12890625 C184 8 184 8 186 6 C187.93798263 3.22739701 187.93798263 3.22739701 189 1 C189.66 1 190.32 1 191 1 C191.33 28.72 191.66 56.44 192 85 C192.66 85 193.32 85 194 85 C194.04626319 97.87344021 194.08183851 110.74686076 194.10362434 123.62036705 C194.11407843 129.59752709 194.12826721 135.57463042 194.15087891 141.55175781 C194.17254942 147.31591985 194.18455637 153.08002722 194.18975449 158.84422684 C194.19346068 161.04754116 194.20069754 163.25085237 194.21146011 165.45414352 C194.22589807 168.53118192 194.22798118 171.60799199 194.22705078 174.68505859 C194.23424133 175.60359116 194.24143188 176.52212372 194.24884033 177.4684906 C194.246091 178.30424118 194.24334167 179.13999176 194.24050903 180.00106812 C194.24235262 180.72928457 194.24419621 181.45750103 194.24609566 182.20778465 C194 184 194 184 192 186 C189.29727173 186.28520203 189.29727173 186.28520203 185.77587891 186.3347168 C185.12755443 186.34634039 184.47922995 186.35796398 183.81125927 186.3699398 C181.61638715 186.40635083 179.42163076 186.42799795 177.2265625 186.44921875 C175.64059147 186.47105341 174.05462856 186.49348487 172.46867371 186.51646423 C168.10470966 186.57600584 163.74070706 186.62061537 159.37652969 186.66120148 C156.63089769 186.68744363 153.88532527 186.71726687 151.13973999 186.74798584 C118.25091457 187.10780761 85.36715101 186.95952066 52.47838593 186.6584816 C48.80169967 186.62490136 45.12500248 186.59275932 41.44830322 186.56063843 C35.64015315 186.50881479 29.83210267 186.45054343 24.02407265 186.38669014 C21.86577202 186.36339469 19.70745483 186.34158285 17.54912376 186.32130241 C14.59752876 186.2928257 11.64608135 186.25799586 8.69458008 186.22119141 C7.38283782 186.21020684 7.38283782 186.21020684 6.04459572 186.19900036 C0.11448986 186.11448986 0.11448986 186.11448986 -1 185 C-1.0976134 182.67232986 -1.12997765 180.37437981 -1.12025452 178.04624939 C-1.12110894 177.31035554 -1.12196337 176.57446169 -1.12284368 175.81626803 C-1.12450067 173.33183354 -1.11897356 170.84746545 -1.11352539 168.36303711 C-1.11324354 166.58951316 -1.11340121 164.81598909 -1.1139679 163.04246521 C-1.11425595 158.21208983 -1.1083579 153.38173906 -1.10139394 148.55136943 C-1.09516176 143.50914683 -1.09455671 138.46692373 -1.09336853 133.42469788 C-1.09025481 123.86949773 -1.08204088 114.31430897 -1.07201904 104.75911385 C-1.06085916 93.88384567 -1.05534777 83.00857695 -1.05032361 72.13330448 C-1.0398583 49.75553 -1.02225807 27.37776564 -1 5 C-1.66 5 -2.32 5 -3 5 C-3 3.68 -3 2.36 -3 1 C-1 0 -1 0 0 0 Z M135 104 C135 127.43 135 150.86 135 175 C150.18 175 165.36 175 181 175 C182.43872134 172.12255732 182.11937153 169.65434078 182.11352539 166.43896484 C182.11367142 165.76567642 182.11381744 165.092388 182.1139679 164.3986969 C182.11327027 162.16941119 182.10548489 159.94020865 182.09765625 157.7109375 C182.09579154 156.16679937 182.09436789 154.62266066 182.09336853 153.07852173 C182.08954754 149.01129528 182.07972082 144.94410445 182.06866455 140.87689209 C182.05664451 135.99854264 182.05204619 131.1201813 182.04621124 126.24182129 C182.03650885 118.82785607 182.01734938 111.41396904 182 104 C166.49 104 150.98 104 135 104 Z " fill="#8EDB38" transform="translate(13,28)"/>
<path d="M0 0 C0.66 0 1.32 0 2 0 C2.33 27.72 2.66 55.44 3 84 C3.66 84 4.32 84 5 84 C5.02740796 86.62507322 5.04703194 89.24984991 5.0625 91.875 C5.07087891 92.60203125 5.07925781 93.3290625 5.08789062 94.078125 C5.10495644 97.96912994 4.95520744 101.76356846 4.51367188 105.63085938 C3.96229104 110.95702103 3.7817834 116.2502119 3.68359375 121.6015625 C3.6524221 123.04527725 3.6524221 123.04527725 3.62062073 124.51815796 C3.55591207 127.55370851 3.49661125 130.58933583 3.4375 133.625 C3.3942397 135.69922628 3.35062319 137.77344516 3.30664062 139.84765625 C3.20031297 144.89836142 3.09883079 149.9491428 3 155 C2.67 155 2.34 155 2 155 C1.67 141.47 1.34 127.94 1 114 C0.34 113.67 -0.32 113.34 -1 113 C-0.62875 113.8353125 -0.62875 113.8353125 -0.25 114.6875 C-0.1675 115.450625 -0.085 116.21375 0 117 C-0.64678711 117.62350342 -1.29357422 118.24700684 -1.95996094 118.8894043 C-5.12789633 123.71978545 -4.4935182 128.43276777 -4.390625 134.08203125 C-4.38213531 135.83600471 -4.38213531 135.83600471 -4.37347412 137.62541199 C-4.35110936 141.35486025 -4.30091 145.0833428 -4.25 148.8125 C-4.22993525 151.34308507 -4.21168445 153.87368522 -4.1953125 156.40429688 C-4.15124409 162.60319328 -4.08432971 168.80152764 -4 175 C-5.32 175.33 -6.64 175.66 -8 176 C-8 172.74360202 -7.95496916 169.48972789 -7.90820312 166.23364258 C-7.89844955 165.55045456 -7.88869598 164.86726654 -7.87864685 164.16337585 C-7.84638438 161.90709136 -7.81381843 159.65081135 -7.78125 157.39453125 C-7.75881107 155.82940192 -7.73639107 154.26427232 -7.71398926 152.69914246 C-7.65499479 148.58098075 -7.59574296 144.46282278 -7.53643799 140.34466553 C-7.47595982 136.14188862 -7.41572442 131.93910823 -7.35546875 127.73632812 C-7.23721711 119.49088199 -7.11869365 111.24543979 -7 103 C-7.87295212 103.07105453 -8.74590424 103.14210907 -9.64530945 103.21531677 C-10.80093887 103.30724808 -11.9565683 103.39917938 -13.1472168 103.49389648 C-14.28829391 103.58557602 -15.42937103 103.67725555 -16.60502625 103.77171326 C-21.34658443 104.09054779 -26.06269154 104.10959955 -30.8125 104.0625 C-31.70775391 104.05798828 -32.60300781 104.05347656 -33.52539062 104.04882812 C-35.68362426 104.03728677 -37.84182239 104.0193655 -40 104 C-40 103.67 -40 103.34 -40 103 C-44.95 102.67 -49.9 102.34 -55 102 C-55 125.76 -55 149.52 -55 174 C-56.32 173.34 -57.64 172.68 -59 172 C-59.66 172.33 -60.32 172.66 -61 173 C-61 172.34 -61 171.68 -61 171 C-61.99 171 -62.98 171 -64 171 C-64.33 171.66 -64.66 172.32 -65 173 C-65.33 150.23 -65.66 127.46 -66 104 C-77.71273256 104.11865962 -77.71273256 104.11865962 -89.42504883 104.27026367 C-90.89403633 104.27902597 -92.36303111 104.28667052 -93.83203125 104.29296875 C-94.59398804 104.30831665 -95.35594482 104.32366455 -96.14099121 104.33947754 C-101.48815262 104.34213122 -101.48815262 104.34213122 -103.9909668 102.66918945 C-105.56372305 100.06746322 -105.30897079 97.96611956 -105 95 C-104.34 94.01 -103.68 93.02 -103 92 C-99.95251633 91.68414579 -97.10421183 91.56265624 -94.05224609 91.56762695 C-92.66192421 91.55233948 -92.66192421 91.55233948 -91.24351501 91.53674316 C-88.17009549 91.506472 -85.09698688 91.4973257 -82.0234375 91.48828125 C-79.89636182 91.47144503 -77.76929616 91.45329624 -75.64224243 91.43388367 C-70.03628671 91.38626277 -64.43037157 91.35653169 -58.82427979 91.33044434 C-53.10672995 91.30069968 -47.38932015 91.25414853 -41.671875 91.20898438 C-30.44798973 91.12281377 -19.22407574 91.05552981 -8 91 C-8.00229111 90.08557632 -8.00458221 89.17115265 -8.00694275 88.22901917 C-8.08065265 54.24075623 -8.08065265 54.24075623 -7.62768555 37.40014648 C-7.55927653 34.81572063 -7.50119875 32.23116664 -7.44335938 29.64648438 C-7.40162945 27.981756 -7.35933834 26.31704156 -7.31640625 24.65234375 C-7.29969376 23.88921371 -7.28298126 23.12608368 -7.26576233 22.33982849 C-7.11495287 17.11495287 -7.11495287 17.11495287 -6 16 C-5.7180604 13.71315662 -5.55222995 11.42636727 -5.37890625 9.12890625 C-5 7 -5 7 -3 5 C-1.06201737 2.22739701 -1.06201737 2.22739701 0 0 Z " fill="#A5E93E" transform="translate(202,29)"/>
<path d="M0 0 C2.05620815 3.08431222 2.24979863 3.7063562 2.24723816 7.18597412 C2.25143265 8.03822571 2.25562714 8.89047729 2.25994873 9.76855469 C2.25432922 10.70054688 2.24870972 11.63253906 2.24291992 12.59277344 C2.24481827 13.57683167 2.24671661 14.56088989 2.24867249 15.57476807 C2.25238478 18.83638411 2.2416664 22.09777864 2.23046875 25.359375 C2.22927669 27.62518284 2.22882384 29.89099118 2.2290802 32.15679932 C2.22751435 36.91153039 2.21921925 41.66618628 2.20581055 46.42089844 C2.18885934 52.50831005 2.18499511 58.59563869 2.18575573 64.68307114 C2.18548335 69.3654255 2.17999063 74.04776182 2.17275429 78.73011017 C2.16957669 80.97393914 2.16760234 83.21777016 2.16686058 85.46160126 C2.16468519 88.60431879 2.15591391 91.74694963 2.14526367 94.88964844 C2.14571686 95.8135437 2.14617004 96.73743896 2.14663696 97.68933105 C2.12264869 102.54623336 2.07647803 107.25072256 1 112 C-2 114 -2 114 -5.5625 113.8125 C-9 113 -9 113 -11 110 C-11.24050903 107.85493469 -11.24050903 107.85493469 -11.22705078 105.3449707 C-11.22689972 104.40422195 -11.22674866 103.46347321 -11.22659302 102.49421692 C-11.21627045 101.48163315 -11.20594788 100.46904938 -11.1953125 99.42578125 C-11.1924826 98.38681198 -11.18965271 97.34784271 -11.18673706 96.27738953 C-11.17553282 92.95564303 -11.15042764 89.63416515 -11.125 86.3125 C-11.11497052 84.06185285 -11.10584462 81.81120148 -11.09765625 79.56054688 C-11.0772934 74.04017758 -11.03814473 68.52038983 -11 63 C-25.85 63 -40.7 63 -56 63 C-55.96061429 76.32680324 -55.96061429 76.32680324 -55.90991211 89.65356445 C-55.86588112 107.39118108 -55.86588112 107.39118108 -57 116 C-62.75 113.375 -62.75 113.375 -65 110 C-65.33 112.31 -65.66 114.62 -66 117 C-66.33 117 -66.66 117 -67 117 C-67.11377277 93.97414248 -67.04173135 71.0067477 -66 48 C-65.67 48.66 -65.34 49.32 -65 50 C-64.34 50 -63.68 50 -63 50 C-62.67 48.68 -62.34 47.36 -62 46 C-61.34 46 -60.68 46 -60 46 C-59.67 48.97 -59.34 51.94 -59 55 C-57.00045254 55.04254356 -54.99958364 55.04080783 -53 55 C-52.505 54.505 -52.505 54.505 -52 54 C-38.14768534 52.19608121 -23.92885794 52.90134295 -10 53 C-10.16167664 52.27092438 -10.32335327 51.54184875 -10.4899292 50.79067993 C-10.9564166 48.23845183 -11.13845904 45.93684057 -11.16113281 43.34912109 C-11.17074036 42.45824799 -11.1803479 41.56737488 -11.19024658 40.64950562 C-11.19449646 39.70040314 -11.19874634 38.75130066 -11.203125 37.7734375 C-11.20882507 36.78880524 -11.21452515 35.80417297 -11.22039795 34.78970337 C-11.22982284 32.71365426 -11.23637192 30.63759035 -11.24023438 28.56152344 C-11.24998683 25.37929608 -11.28105266 22.19770222 -11.3125 19.015625 C-11.31902597 16.99739966 -11.32427803 14.97916972 -11.328125 12.9609375 C-11.3404718 12.00778656 -11.3528186 11.05463562 -11.36553955 10.07260132 C-11.36253845 9.18803253 -11.35953735 8.30346375 -11.35644531 7.39208984 C-11.36191376 6.22557388 -11.36191376 6.22557388 -11.36749268 5.03549194 C-10.24351588 -1.19006266 -5.05282116 -0.48122106 0 0 Z " fill="#AFEB3E" transform="translate(80,59)"/>
<path d="M0 0 C23.69530938 -0.02333227 47.39061705 -0.04098079 71.08593559 -0.05181217 C82.08740497 -0.05697443 93.08886723 -0.0640158 104.09033203 -0.07543945 C113.67616312 -0.08538843 123.26198906 -0.09185394 132.84782517 -0.09408849 C137.92618392 -0.09539524 143.0045279 -0.0984788 148.08288193 -0.10573006 C152.85816745 -0.11249363 157.63343206 -0.11461627 162.40872192 -0.11310768 C164.16557046 -0.11338386 165.92241966 -0.11538699 167.67926407 -0.11920547 C170.06955785 -0.12414796 172.45977168 -0.12299621 174.85006714 -0.12025452 C175.55239405 -0.12316736 176.25472095 -0.1260802 176.97833049 -0.12908131 C181.77175758 -0.11412121 181.77175758 -0.11412121 184 1 C184 31.03 184 61.06 184 92 C183.34 92 182.68 92 182 92 C182 94.31 182 96.62 182 99 C181.67 99 181.34 99 181 99 C181 68.97 181 38.94 181 8 C180.34 8 179.68 8 179 8 C178.71125 8.969375 178.4225 9.93875 178.125 10.9375 C177 14 177 14 175 15 C174.64442669 17.25946584 174.55669494 19.4899777 174.44140625 21.7734375 C174 24 174 24 171 27 C171 22.05 171 17.1 171 12 C131.895 11.505 131.895 11.505 92 11 C92.07919356 30.32695987 92.07919356 30.32695987 92.18017578 49.65380859 C92.18601453 52.06868311 92.19111154 54.48355958 92.1953125 56.8984375 C92.20554443 58.16212158 92.21577637 59.42580566 92.22631836 60.7277832 C92.22668091 62.52421265 92.22668091 62.52421265 92.22705078 64.35693359 C92.231492 65.40062103 92.23593323 66.44430847 92.24050903 67.5196228 C92 70 92 70 90 72 C88.125 72.265625 88.125 72.265625 86 72.25 C85.29875 72.25515625 84.5975 72.2603125 83.875 72.265625 C82 72 82 72 80 70 C79.75949097 67.5196228 79.75949097 67.5196228 79.77294922 64.35693359 C79.77319092 63.15931396 79.77343262 61.96169434 79.77368164 60.7277832 C79.78391357 59.46409912 79.79414551 58.20041504 79.8046875 56.8984375 C79.80670166 55.74061768 79.80871582 54.58279785 79.81079102 53.38989258 C79.82128036 49.05155494 79.84920276 44.71327362 79.875 40.375 C79.936875 25.834375 79.936875 25.834375 80 11 C53.6 11 27.2 11 0 11 C0.33 36.74 0.66 62.48 1 89 C15.39045565 88.92082681 15.39045565 88.92082681 29.78076172 88.81982422 C31.58040125 88.81398482 33.3800434 88.80888796 35.1796875 88.8046875 C36.11949463 88.79445557 37.05930176 88.78422363 38.02758789 88.77368164 C38.9206665 88.77343994 39.81374512 88.77319824 40.73388672 88.77294922 C41.51110077 88.768508 42.28831482 88.76406677 43.08908081 88.75949097 C45 89 45 89 47 91 C45.74340576 91.05534912 44.48681152 91.11069824 43.19213867 91.16772461 C38.53471113 91.37400473 33.87755447 91.58592535 29.22045898 91.79956055 C27.203927 91.89127274 25.18732463 91.98145041 23.1706543 92.07006836 C20.27372729 92.19763292 17.37709738 92.33069473 14.48046875 92.46484375 C13.12564644 92.52272316 13.12564644 92.52272316 11.74345398 92.58177185 C10.4824865 92.64172081 10.4824865 92.64172081 9.19604492 92.70288086 C8.45658127 92.73619003 7.71711761 92.76949921 6.95524597 92.80381775 C4.78629066 92.94904977 4.78629066 92.94904977 2 94 C0.68 93.67 -0.64 93.34 -2 93 C-2.33 90.03 -2.66 87.06 -3 84 C-3.66 84 -4.32 84 -5 84 C-4.67 83.01 -4.34 82.02 -4 81 C-3.34 81 -2.68 81 -2 81 C-2 57.57 -2 34.14 -2 10 C2.30482411 9.13903518 6.15455766 8.8518761 10.49658203 8.85473633 C11.23376465 8.85137772 11.97094727 8.8480191 12.73046875 8.84455872 C15.15626733 8.83509391 17.58199663 8.83310827 20.0078125 8.83203125 C21.6974185 8.82881703 23.38702422 8.82545283 25.07662964 8.82194519 C28.61212815 8.81596618 32.14760226 8.81410418 35.68310547 8.81469727 C40.21718724 8.81479916 44.75111336 8.80111393 49.28515816 8.78392506 C52.77152225 8.77282146 56.2578484 8.7707775 59.74422836 8.77130699 C61.4164064 8.77012567 63.08858537 8.76569538 64.760746 8.75797462 C67.09467865 8.74820197 69.42826914 8.75104116 71.76220703 8.75708008 C72.80022964 8.74865082 72.80022964 8.74865082 73.85922241 8.74005127 C77.47698326 8.76389677 78.89587324 8.93058216 82 11 C82.39872742 13.40444946 82.39872742 13.40444946 82.43237305 16.45947266 C82.45216721 17.60050446 82.47196136 18.74153625 82.49235535 19.91714478 C82.49874527 21.15362762 82.50513519 22.39011047 82.51171875 23.6640625 C82.52966995 24.92640717 82.54762115 26.18875183 82.56611633 27.48934937 C82.61120235 30.84642143 82.64344945 34.20312448 82.66955566 37.56036377 C82.69932615 40.98569073 82.74586835 44.41078481 82.79101562 47.8359375 C82.8761832 54.55718453 82.94443775 61.27844661 83 68 C85.31 68.33 87.62 68.66 90 69 C89.97121513 67.90125801 89.97121513 67.90125801 89.94184875 66.78031921 C89.76377777 59.87969234 89.60035521 52.97885757 89.45341206 46.07750225 C89.37734756 42.52935959 89.29560921 38.98153645 89.20092773 35.43383789 C89.09234329 31.35589552 89.0083973 27.27777044 88.92578125 23.19921875 C88.88842361 21.92414963 88.85106598 20.64908051 88.81257629 19.33537292 C88.79232895 18.15437515 88.7720816 16.97337738 88.7512207 15.7565918 C88.72679398 14.71512497 88.70236725 13.67365814 88.67720032 12.60063171 C89 10 89 10 90.06021118 8.15951538 C93.01660743 6.39231944 95.94470311 6.62438003 99.28540039 6.69116211 C100.02389725 6.69393661 100.7623941 6.69671112 101.52326965 6.6995697 C103.96503236 6.71185865 106.40608509 6.7449376 108.84765625 6.77734375 C110.54250678 6.78801762 112.2373682 6.79707499 113.93223572 6.80458069 C118.39502577 6.82738021 122.85750458 6.86643264 127.32012939 6.9105835 C134.46708333 6.9807312 141.61402723 7.03596638 148.76122856 7.07293892 C151.26197063 7.08968846 153.7623463 7.11924156 156.26295471 7.14964294 C157.78996436 7.16010015 159.31697751 7.17006082 160.84399414 7.17944336 C161.54274658 7.19134705 162.24149902 7.20325073 162.96142578 7.21551514 C164.64248099 7.21969518 166.32315411 7.11896199 168 7 C168.66 6.34 169.32 5.68 170 5 C170.99 5 171.98 5 173 5 C173 4.34 173 3.68 173 3 C86.87 2.505 86.87 2.505 -1 2 C-0.67 1.34 -0.34 0.68 0 0 Z " fill="#C5EE61" transform="translate(23,21)"/>
<path d="M0 0 C5.94 0 11.88 0 18 0 C18 0.33 18 0.66 18 1 C10.08 1.495 10.08 1.495 2 2 C2.00523682 3.80073975 2.01047363 5.60147949 2.01586914 7.45678711 C2.03205622 13.43583098 2.04351284 19.41486859 2.05181217 25.39392757 C2.05700968 29.01564201 2.06404981 32.63733253 2.07543945 36.2590332 C2.08638044 39.76035863 2.09230037 43.26166118 2.09487724 46.7630024 C2.09759827 48.73531474 2.10539217 50.707618 2.11329651 52.67991638 C2.11370054 59.20913644 1.88504639 65.52905528 1 72 C1.66482391 71.91869843 2.32964783 71.83739685 3.01461792 71.75363159 C11.84609344 70.71777805 20.57801747 71.10756065 29.4375 71.4375 C31.74760315 71.51684272 34.05776437 71.59430216 36.36793518 71.67164612 C37.79372173 71.72010024 39.21945691 71.77009869 40.64512634 71.82188416 C43.76746753 71.93444378 46.87477162 72 50 72 C49.99111755 71.3596431 49.98223511 70.71928619 49.9730835 70.05952454 C49.88456329 63.3923943 49.82424607 56.72543111 49.78027344 50.05786133 C49.76016295 47.56983662 49.73287073 45.08185914 49.69824219 42.59399414 C49.64970147 39.01697125 49.62702505 35.44057349 49.609375 31.86328125 C49.58872986 30.75165115 49.56808472 29.64002106 49.54681396 28.4947052 C49.54509021 22.55703723 49.66253917 19.40982331 54 15 C54 13.68 54 12.36 54 11 C54.99 11.33 55.98 11.66 57 12 C57.14729748 17.32621405 57.28932283 22.65253885 57.42724609 27.97900391 C57.47443342 29.77623944 57.52286063 31.57344302 57.57275391 33.37060547 C58.01206237 49.24846834 58.05684025 65.11664711 58 81 C48.29197634 81.20464642 38.58366244 81.39112491 28.875 81.5625 C27.79384918 81.5815999 27.79384918 81.5815999 26.69085693 81.60108566 C0.43766984 82.05860068 -25.75442663 81.88111281 -52 81 C-50 79 -50 79 -47.6171875 78.8046875 C-46.71226563 78.82789063 -45.80734375 78.85109375 -44.875 78.875 C-43.96492188 78.89304687 -43.05484375 78.91109375 -42.1171875 78.9296875 C-41.41851562 78.95289063 -40.71984375 78.97609375 -40 79 C-40 78.34 -40 77.68 -40 77 C-37.525 76.505 -37.525 76.505 -35 76 C-35 75.34 -35 74.68 -35 74 C-27.08 74 -19.16 74 -11 74 C-10.34 72.68 -9.68 71.36 -9 70 C-6.04680182 68.76156206 -5.12561472 68.95812843 -2 70 C-0.57761608 67.15523215 -0.83575442 64.71127112 -0.79467773 61.53076172 C-0.78477814 60.86722687 -0.77487854 60.20369202 -0.76467896 59.52005005 C-0.73305084 57.32329903 -0.70830146 55.12652637 -0.68359375 52.9296875 C-0.66302534 51.40796339 -0.6420289 49.886245 -0.62062073 48.36453247 C-0.56538829 44.3565535 -0.51598422 40.34852287 -0.46777344 36.3404541 C-0.41756695 32.25166213 -0.36187644 28.16294532 -0.30664062 24.07421875 C-0.1990447 16.04954094 -0.09810962 8.0247994 0 0 Z " fill="#7AD235" transform="translate(147,131)"/>
<path d="M0 0 C0 60.72 0 121.44 0 184 C63.36 184 126.72 184 192 184 C192 160.24 192 136.48 192 112 C192.33 108.7 192.66 105.4 193 102 C193.33 102 193.66 102 194 102 C194.0462719 112.65691222 194.08184295 123.31380068 194.10362434 133.97079277 C194.11407654 138.91887832 194.12826183 143.86689532 194.15087891 148.81494141 C194.17255623 153.58707481 194.1845578 158.35914213 194.18975449 163.13132095 C194.19345946 164.9550493 194.200694 166.77877389 194.21146011 168.60247421 C194.22590721 171.15026512 194.22798081 173.69778042 194.22705078 176.24560547 C194.23424133 177.00517548 194.24143188 177.76474548 194.24884033 178.54733276 C194.22810432 183.77189568 194.22810432 183.77189568 192 186 C189.29727173 186.28520203 189.29727173 186.28520203 185.77587891 186.3347168 C185.12755443 186.34634039 184.47922995 186.35796398 183.81125927 186.3699398 C181.61638715 186.40635083 179.42163076 186.42799795 177.2265625 186.44921875 C175.64059147 186.47105341 174.05462856 186.49348487 172.46867371 186.51646423 C168.10470966 186.57600584 163.74070706 186.62061537 159.37652969 186.66120148 C156.63089769 186.68744363 153.88532527 186.71726687 151.13973999 186.74798584 C118.25091457 187.10780761 85.36715101 186.95952066 52.47838593 186.6584816 C48.80169967 186.62490136 45.12500248 186.59275932 41.44830322 186.56063843 C35.64015315 186.50881479 29.83210267 186.45054343 24.02407265 186.38669014 C21.86577202 186.36339469 19.70745483 186.34158285 17.54912376 186.32130241 C14.59752876 186.2928257 11.64608135 186.25799586 8.69458008 186.22119141 C7.38283782 186.21020684 7.38283782 186.21020684 6.04459572 186.19900036 C0.11448986 186.11448986 0.11448986 186.11448986 -1 185 C-1.0976134 182.67232986 -1.12997765 180.37437981 -1.12025452 178.04624939 C-1.12110894 177.31035554 -1.12196337 176.57446169 -1.12284368 175.81626803 C-1.12450067 173.33183354 -1.11897356 170.84746545 -1.11352539 168.36303711 C-1.11324354 166.58951316 -1.11340121 164.81598909 -1.1139679 163.04246521 C-1.11425595 158.21208983 -1.1083579 153.38173906 -1.10139394 148.55136943 C-1.09516176 143.50914683 -1.09455671 138.46692373 -1.09336853 133.42469788 C-1.09025481 123.86949773 -1.08204088 114.31430897 -1.07201904 104.75911385 C-1.06085916 93.88384567 -1.05534777 83.00857695 -1.05032361 72.13330448 C-1.0398583 49.75553 -1.02225807 27.37776564 -1 5 C-1.66 5 -2.32 5 -3 5 C-3 3.68 -3 2.36 -3 1 C-1 0 -1 0 0 0 Z " fill="#89C856" transform="translate(13,28)"/>
<path d="M0 0 C0.73718262 -0.00335861 1.47436523 -0.00671722 2.23388672 -0.01017761 C4.6596853 -0.01964242 7.0854146 -0.02162805 9.51123047 -0.02270508 C11.20083647 -0.0259193 12.89044219 -0.0292835 14.58004761 -0.03279114 C18.11554612 -0.03877015 21.65102023 -0.04063215 25.18652344 -0.04003906 C29.72060521 -0.03993717 34.25453133 -0.0536224 38.78857613 -0.07081127 C42.27494022 -0.08191486 45.76126637 -0.08395883 49.24764633 -0.08342934 C50.91982437 -0.08461066 52.59200334 -0.08904095 54.26416397 -0.0967617 C56.59809662 -0.10653436 58.93168711 -0.10369517 61.265625 -0.09765625 C62.30364761 -0.10608551 62.30364761 -0.10608551 63.36264038 -0.11468506 C66.98040123 -0.09083955 68.39929121 0.07584583 71.50341797 2.14526367 C71.90214539 4.54971313 71.90214539 4.54971313 71.93579102 7.60473633 C71.95558517 8.74576813 71.97537933 9.88679993 71.99577332 11.06240845 C72.00216324 12.2988913 72.00855316 13.53537415 72.01513672 14.80932617 C72.03308792 16.07167084 72.05103912 17.3340155 72.0695343 18.63461304 C72.11462031 21.9916851 72.14686742 25.34838815 72.17297363 28.70562744 C72.20274412 32.1309544 72.24928632 35.55604848 72.29443359 38.98120117 C72.37960117 45.7024482 72.44785572 52.42371028 72.50341797 59.14526367 C74.81341797 59.47526367 77.12341797 59.80526367 79.50341797 60.14526367 C79.83341797 41.33526367 80.16341797 22.52526367 80.50341797 3.14526367 C80.83341797 3.14526367 81.16341797 3.14526367 81.50341797 3.14526367 C81.54971087 10.67295147 81.58527162 18.20062455 81.60704231 25.72842216 C81.61748994 29.22370295 81.6316668 32.71888651 81.65429688 36.21411133 C81.6801375 40.23023423 81.68988263 44.24625464 81.69873047 48.26245117 C81.70905304 49.5208078 81.71937561 50.77916443 81.73001099 52.07565308 C81.73016205 53.23670563 81.73031311 54.39775818 81.73046875 55.59399414 C81.73490997 56.61991669 81.7393512 57.64583923 81.743927 58.70285034 C81.50341797 61.14526367 81.50341797 61.14526367 79.50341797 63.14526367 C77.62841797 63.41088867 77.62841797 63.41088867 75.50341797 63.39526367 C74.80216797 63.40041992 74.10091797 63.40557617 73.37841797 63.41088867 C71.50341797 63.14526367 71.50341797 63.14526367 69.50341797 61.14526367 C69.26290894 58.66488647 69.26290894 58.66488647 69.27636719 55.50219727 C69.27660889 54.30457764 69.27685059 53.10695801 69.27709961 51.87304688 C69.28733154 50.60936279 69.29756348 49.34567871 69.30810547 48.04370117 C69.31011963 46.88588135 69.31213379 45.72806152 69.31420898 44.53515625 C69.32469833 40.19681861 69.35262073 35.85853729 69.37841797 31.52026367 C69.44029297 16.97963867 69.44029297 16.97963867 69.50341797 2.14526367 C43.10341797 2.14526367 16.70341797 2.14526367 -10.49658203 2.14526367 C-10.16658203 27.88526367 -9.83658203 53.62526367 -9.49658203 80.14526367 C4.89387362 80.06609048 4.89387362 80.06609048 19.28417969 79.96508789 C21.08381921 79.95924849 22.88346137 79.95415163 24.68310547 79.94995117 C25.6229126 79.93971924 26.56271973 79.9294873 27.53100586 79.91894531 C28.42408447 79.91870361 29.31716309 79.91846191 30.23730469 79.91821289 C31.01451874 79.91377167 31.79173279 79.90933044 32.59249878 79.90475464 C34.50341797 80.14526367 34.50341797 80.14526367 36.50341797 82.14526367 C35.24682373 82.20061279 33.99022949 82.25596191 32.69555664 82.31298828 C28.0381291 82.5192684 23.38097244 82.73118902 18.72387695 82.94482422 C16.70734497 83.03653641 14.6907426 83.12671408 12.67407227 83.21533203 C9.77714526 83.34289659 6.88051535 83.4759584 3.98388672 83.61010742 C2.62906441 83.66798683 2.62906441 83.66798683 1.24687195 83.72703552 C-0.01409554 83.78698448 -0.01409554 83.78698448 -1.30053711 83.84814453 C-2.04000076 83.8814537 -2.77946442 83.91476288 -3.54133606 83.94908142 C-5.71029137 84.09431344 -5.71029137 84.09431344 -8.49658203 85.14526367 C-9.81658203 84.81526367 -11.13658203 84.48526367 -12.49658203 84.14526367 C-12.82658203 81.17526367 -13.15658203 78.20526367 -13.49658203 75.14526367 C-14.15658203 75.14526367 -14.81658203 75.14526367 -15.49658203 75.14526367 C-15.16658203 74.15526367 -14.83658203 73.16526367 -14.49658203 72.14526367 C-13.83658203 72.14526367 -13.17658203 72.14526367 -12.49658203 72.14526367 C-12.49658203 48.71526367 -12.49658203 25.28526367 -12.49658203 1.14526367 C-8.19175792 0.28429885 -4.34202437 -0.00286023 0 0 Z " fill="#DDF57E" transform="translate(33.49658203125,29.854736328125)"/>
<path d="M0 0 C0.66 0 1.32 0 2 0 C2 23.1 2 46.2 2 70 C1.01 70.495 1.01 70.495 0 71 C0 69.68 0 68.36 0 67 C-1.56249809 68.31201173 -1.56249809 68.31201173 -3 70 C-3 70.99 -3 71.98 -3 73 C-3.495 73.495 -3.495 73.495 -4 74 C-4.15582303 75.34015221 -4.25044142 76.68758903 -4.31640625 78.03515625 C-4.35830078 78.84404297 -4.40019531 79.65292969 -4.44335938 80.48632812 C-4.48267578 81.33646484 -4.52199219 82.18660156 -4.5625 83.0625 C-4.60568359 83.91650391 -4.64886719 84.77050781 -4.69335938 85.65039062 C-4.79976702 87.76672037 -4.90041731 89.88333813 -5 92 C-5.99 91.67 -6.98 91.34 -8 91 C-8.11931694 72.30578923 -8.00736424 53.62729801 -7.5625 34.9375 C-7.54285187 34.04530762 -7.52320374 33.15311523 -7.50296021 32.23388672 C-7.44622315 29.7065353 -7.3825856 27.1794635 -7.31640625 24.65234375 C-7.29968872 23.89038193 -7.28297119 23.1284201 -7.26574707 22.34336853 C-7.11513337 17.11513337 -7.11513337 17.11513337 -6 16 C-5.7180604 13.71315662 -5.55222995 11.42636727 -5.37890625 9.12890625 C-5 7 -5 7 -3 5 C-1.06201737 2.22739701 -1.06201737 2.22739701 0 0 Z " fill="#B1F136" transform="translate(202,29)"/>
<path d="M0 0 C5.94 0 11.88 0 18 0 C18 0.33 18 0.66 18 1 C10.08 1.495 10.08 1.495 2 2 C2.00523682 3.80073975 2.01047363 5.60147949 2.01586914 7.45678711 C2.03205622 13.43583098 2.04351284 19.41486859 2.05181217 25.39392757 C2.05700968 29.01564201 2.06404981 32.63733253 2.07543945 36.2590332 C2.08638044 39.76035863 2.09230037 43.26166118 2.09487724 46.7630024 C2.09759827 48.73531474 2.10539217 50.707618 2.11329651 52.67991638 C2.11370054 59.20913644 1.88504639 65.52905528 1 72 C1.66228607 71.91869843 2.32457214 71.83739685 3.00692749 71.75363159 C11.92038656 70.70468777 20.74508302 71.10879664 29.6875 71.4375 C31.27536986 71.49085606 32.86326058 71.54359494 34.45117188 71.59570312 C38.30105847 71.72336321 42.15056727 71.85934213 46 72 C46.33 72.66 46.66 73.32 47 74 C35.12 74 23.24 74 11 74 C11.33 75.65 11.66 77.3 12 79 C5.25 80.125 5.25 80.125 3 79 C0.90178785 79.39938767 0.90178785 79.39938767 -1 80 C-1.33 78.35 -1.66 76.7 -2 75 C-2.99 75.33 -3.98 75.66 -5 76 C-5.33 77.65 -5.66 79.3 -6 81 C-21.18 81 -36.36 81 -52 81 C-50 79 -50 79 -47.6171875 78.8046875 C-46.71226563 78.82789063 -45.80734375 78.85109375 -44.875 78.875 C-43.96492188 78.89304687 -43.05484375 78.91109375 -42.1171875 78.9296875 C-41.41851562 78.95289063 -40.71984375 78.97609375 -40 79 C-40 78.34 -40 77.68 -40 77 C-37.525 76.505 -37.525 76.505 -35 76 C-35 75.34 -35 74.68 -35 74 C-27.08 74 -19.16 74 -11 74 C-10.34 72.68 -9.68 71.36 -9 70 C-6.04680182 68.76156206 -5.12561472 68.95812843 -2 70 C-0.57761608 67.15523215 -0.83575442 64.71127112 -0.79467773 61.53076172 C-0.78477814 60.86722687 -0.77487854 60.20369202 -0.76467896 59.52005005 C-0.73305084 57.32329903 -0.70830146 55.12652637 -0.68359375 52.9296875 C-0.66302534 51.40796339 -0.6420289 49.886245 -0.62062073 48.36453247 C-0.56538829 44.3565535 -0.51598422 40.34852287 -0.46777344 36.3404541 C-0.41756695 32.25166213 -0.36187644 28.16294532 -0.30664062 24.07421875 C-0.1990447 16.04954094 -0.09810962 8.0247994 0 0 Z " fill="#7CD338" transform="translate(147,131)"/>
<path d="M0 0 C0.66 0 1.32 0 2 0 C4.42479736 3.63719605 4.38662577 5.85703482 4.625 10.1875 C4.69976562 11.45980469 4.77453125 12.73210937 4.8515625 14.04296875 C4.90054688 15.01878906 4.94953125 15.99460937 5 17 C5.66 17 6.32 17 7 17 C7.02740796 19.62507322 7.04703194 22.24984991 7.0625 24.875 C7.07087891 25.60203125 7.07925781 26.3290625 7.08789062 27.078125 C7.10495644 30.96912994 6.95520744 34.76356846 6.51367188 38.63085938 C5.96229104 43.95702103 5.7817834 49.2502119 5.68359375 54.6015625 C5.66281265 55.564039 5.64203156 56.5265155 5.62062073 57.51815796 C5.55591207 60.55370851 5.49661125 63.58933583 5.4375 66.625 C5.3942397 68.69922628 5.35062319 70.77344516 5.30664062 72.84765625 C5.20031297 77.89836142 5.09883079 82.9491428 5 88 C4.67 88 4.34 88 4 88 C3.67 74.47 3.34 60.94 3 47 C2.34 46.67 1.68 46.34 1 46 C1.2475 46.556875 1.495 47.11375 1.75 47.6875 C1.8325 48.450625 1.915 49.21375 2 50 C1.02981934 50.93525513 1.02981934 50.93525513 0.04003906 51.8894043 C-3.12789633 56.71978545 -2.4935182 61.43276777 -2.390625 67.08203125 C-2.38496521 68.25134689 -2.37930542 69.42066254 -2.37347412 70.62541199 C-2.35110936 74.35486025 -2.30091 78.0833428 -2.25 81.8125 C-2.22993525 84.34308507 -2.21168445 86.87368522 -2.1953125 89.40429688 C-2.15124409 95.60319328 -2.08432971 101.80152764 -2 108 C-3.98 108.495 -3.98 108.495 -6 109 C-6 100.55565957 -5.7782391 92.10950051 -5.62768555 83.66674805 C-5.58419777 81.17882348 -5.54253365 78.69086638 -5.50268555 76.20288086 C-5.44512456 72.62344041 -5.38141134 69.04415578 -5.31640625 65.46484375 C-5.29969376 64.34714096 -5.28298126 63.22943817 -5.26576233 62.0778656 C-5.2358445 60.53099815 -5.2358445 60.53099815 -5.20532227 58.95288086 C-5.18977798 58.04259628 -5.1742337 57.13231171 -5.15821838 56.19444275 C-5 54 -5 54 -4 52 C-3.72239564 49.01685477 -3.55352551 46.03378801 -3.37890625 43.04296875 C-3.00506308 40.04066119 -2.25094803 37.73993071 -1 35 C-1.804375 34.7525 -2.60875 34.505 -3.4375 34.25 C-6 33 -6 33 -6.9375 31 C-6.958125 30.34 -6.97875 29.68 -7 29 C-6.34 28.34 -5.68 27.68 -5 27 C-5.33 26.34 -5.66 25.68 -6 25 C-5.01 25 -4.02 25 -3 25 C-3.02320313 23.73542969 -3.04640625 22.47085938 -3.0703125 21.16796875 C-3.08907126 19.5078184 -3.10727135 17.84766167 -3.125 16.1875 C-3.15013672 14.93743164 -3.15013672 14.93743164 -3.17578125 13.66210938 C-3.18222656 12.85966797 -3.18867188 12.05722656 -3.1953125 11.23046875 C-3.20578613 10.49207764 -3.21625977 9.75368652 -3.22705078 8.99291992 C-3 7 -3 7 -1 4 C-1 3.01 -1 2.02 -1 1 C-0.67 0.67 -0.34 0.34 0 0 Z " fill="#A2EA37" transform="translate(200,96)"/>
<path d="M0 0 C2.05620815 3.08431222 2.24979863 3.7063562 2.24723816 7.18597412 C2.25143265 8.03822571 2.25562714 8.89047729 2.25994873 9.76855469 C2.25151947 11.16654297 2.25151947 11.16654297 2.24291992 12.59277344 C2.24481827 13.57683167 2.24671661 14.56088989 2.24867249 15.57476807 C2.25238478 18.83638411 2.2416664 22.09777864 2.23046875 25.359375 C2.22927669 27.62518284 2.22882384 29.89099118 2.2290802 32.15679932 C2.22751435 36.91153039 2.21921925 41.66618628 2.20581055 46.42089844 C2.18885934 52.50831005 2.18499511 58.59563869 2.18575573 64.68307114 C2.18548335 69.3654255 2.17999063 74.04776182 2.17275429 78.73011017 C2.16957669 80.97393914 2.16760234 83.21777016 2.16686058 85.46160126 C2.16468519 88.60431879 2.15591391 91.74694963 2.14526367 94.88964844 C2.14571686 95.8135437 2.14617004 96.73743896 2.14663696 97.68933105 C2.12255474 102.56525516 1.82295065 107.19208356 1 112 C-1.97 112 -4.94 112 -8 112 C-8 111.67 -8 111.34 -8 111 C-5.03 110.505 -5.03 110.505 -2 110 C-1.97658385 99.70575924 -1.95893856 89.41152505 -1.94818783 79.11726284 C-1.94302186 74.33459453 -1.93604215 69.55194476 -1.92456055 64.76928711 C-1.82963096 34.87061992 -1.82963096 34.87061992 -3 5 C-3.99 4.67 -4.98 4.34 -6 4 C-5.98952637 4.64211426 -5.97905273 5.28422852 -5.96826172 5.94580078 C-5.75561875 21.10266852 -6.32434843 35.93409702 -8 51 C-8.99 50.34 -9.98 49.68 -11 49 C-11.38095093 47.03334045 -11.38095093 47.03334045 -11.38818359 44.59790039 C-11.39764008 43.68677994 -11.40709656 42.77565948 -11.4168396 41.83692932 C-11.41076691 40.85046921 -11.40469421 39.86400909 -11.3984375 38.84765625 C-11.40130768 37.8365831 -11.40417786 36.82550995 -11.40713501 35.78379822 C-11.40917905 33.64272503 -11.40362553 31.50163331 -11.39111328 29.3605957 C-11.37508142 26.07916528 -11.39094234 22.79896975 -11.41015625 19.51757812 C-11.40817355 17.44010144 -11.40432933 15.36262553 -11.3984375 13.28515625 C-11.40451019 12.30072037 -11.41058289 11.31628448 -11.4168396 10.30201721 C-11.40738312 9.3877446 -11.39792664 8.47347198 -11.38818359 7.53149414 C-11.38579681 6.72700333 -11.38341003 5.92251251 -11.38095093 5.09364319 C-10.24057036 -1.17369949 -5.11936798 -0.48755885 0 0 Z " fill="#C8ED49" transform="translate(80,59)"/>
<path d="M0 0 C2.125 0.375 2.125 0.375 4 1 C5.40382109 24.31345735 5.09642761 47.65561745 5 71 C4.01 71.495 4.01 71.495 3 72 C3 73.32 3 74.64 3 76 C2.34 76 1.68 76 1 76 C1 76.66 1 77.32 1 78 C0.34 78 -0.32 78 -1 78 C-2.4876537 75.02469261 -2.1355611 72.33125542 -2.14526367 69.01171875 C-2.14862228 68.29287506 -2.1519809 67.57403137 -2.15544128 66.83340454 C-2.16495945 64.45141891 -2.1668947 62.06950348 -2.16796875 59.6875 C-2.17118028 58.03605113 -2.17454427 56.38460256 -2.17805481 54.7331543 C-2.18404793 51.2696873 -2.18589448 47.80624526 -2.18530273 44.34277344 C-2.185201 39.89706463 -2.19886425 35.45151512 -2.21607494 31.00584412 C-2.22717263 27.59500386 -2.22922265 24.18420242 -2.22869301 20.77334595 C-2.22987608 19.13383433 -2.23431604 17.4943218 -2.24202538 15.85482788 C-2.25178226 13.56586411 -2.24896471 11.27725021 -2.24291992 8.98828125 C-2.24434494 7.68415283 -2.24576996 6.38002441 -2.24723816 5.03637695 C-2 2 -2 2 0 0 Z " fill="#C2F73B" transform="translate(16,31)"/>
<path d="M0 0 C3.03911971 -0.29666618 5.87457155 -0.39879319 8.91601562 -0.37231445 C9.8396843 -0.37596512 10.76335297 -0.37961578 11.7150116 -0.38337708 C14.77894273 -0.39150636 17.84234893 -0.37785269 20.90625 -0.36328125 C23.02852376 -0.36276293 25.15079801 -0.36327954 27.27307129 -0.36479187 C31.72525175 -0.36470204 36.17725154 -0.35425057 40.62939453 -0.33618164 C46.34633218 -0.31349417 52.06300562 -0.31294923 57.77997589 -0.31969929 C62.1636186 -0.32303519 66.54720068 -0.31641632 70.93083191 -0.30657005 C73.0392373 -0.30271123 75.14764942 -0.30157265 77.25605774 -0.3031559 C80.19883147 -0.30352531 83.14126202 -0.29094115 86.08398438 -0.2746582 C86.96197189 -0.27713562 87.83995941 -0.27961304 88.74455261 -0.28216553 C94.77126024 -0.22873976 94.77126024 -0.22873976 97 2 C93.63655595 3.68172203 89.83908352 3.07660028 86.14404297 3.02172852 C85.22691528 3.01212097 84.3097876 3.00251343 83.36486816 2.99261475 C80.32389831 2.95955072 77.28306883 2.91924661 74.2421875 2.87890625 C72.13754781 2.85461237 70.03290288 2.83076845 67.92825317 2.80735779 C62.38138881 2.74444403 56.83461687 2.67539807 51.2878418 2.60510254 C45.63073953 2.53448487 39.97357159 2.46962864 34.31640625 2.40429688 C23.21086533 2.27519057 12.10541349 2.1396101 1 2 C1 4.31 1 6.62 1 9 C1.99 8.67 2.98 8.34 4 8 C6.48186462 7.96005818 8.92759377 7.9769452 11.40625 8.05078125 C12.12735962 8.0696489 12.84846924 8.08851654 13.59143066 8.10795593 C15.11458231 8.14978842 16.63765668 8.19452079 18.16064453 8.24194336 C20.4910573 8.31223028 22.8214902 8.36653416 25.15234375 8.41992188 C26.63284094 8.46256537 28.11331129 8.50615348 29.59375 8.55078125 C30.2906897 8.56546951 30.98762939 8.58015778 31.70568848 8.59529114 C35.32369038 8.72370165 36.9066285 8.93775233 40 11 C40.3742218 13.80859375 40.3742218 13.80859375 40.37231445 17.4375 C40.37596512 18.09782227 40.37961578 18.75814453 40.38337708 19.43847656 C40.39149748 21.62591092 40.37786108 23.81260791 40.36328125 26 C40.36276282 27.51692708 40.36327986 29.03385484 40.36479187 30.55078125 C40.36470208 33.73187269 40.35425924 36.91271105 40.33618164 40.09375 C40.31349405 44.17629625 40.31294957 48.25847252 40.31969929 52.34106445 C40.32303692 55.47399193 40.3164131 58.60683467 40.30657005 61.73974609 C40.3027142 63.24527544 40.30157143 64.75081421 40.3031559 66.25634766 C40.30352577 68.3585819 40.29092906 70.46033749 40.2746582 72.5625 C40.27005081 73.76003906 40.26544342 74.95757812 40.26069641 76.19140625 C40 79 40 79 38 81 C37.67 58.23 37.34 35.46 37 12 C25.28726744 12.11865962 25.28726744 12.11865962 13.57495117 12.27026367 C12.10596367 12.27902597 10.63696889 12.28667052 9.16796875 12.29296875 C8.02503357 12.3159906 8.02503357 12.3159906 6.85900879 12.33947754 C1.51184738 12.34213122 1.51184738 12.34213122 -0.9909668 10.66918945 C-2.56372305 8.06746322 -2.30897079 5.96611956 -2 3 C-1.34 2.01 -0.68 1.02 0 0 Z " fill="#B6E366" transform="translate(99,121)"/>
<path d="M0 0 C0.66 0.66 1.32 1.32 2 2 C2.99 1.67 3.98 1.34 5 1 C5.02314421 9.04925101 5.04092572 17.09848817 5.05181217 25.14776421 C5.05703644 28.8851425 5.06412584 32.62249807 5.07543945 36.35986328 C5.0862845 39.96489816 5.09228028 43.56991116 5.09487724 47.17496109 C5.09672857 48.55210846 5.1003436 49.92925459 5.10573006 51.30639267 C5.11296181 53.23143094 5.11340824 55.15649112 5.11352539 57.08154297 C5.115746 58.17852509 5.11796661 59.2755072 5.12025452 60.4057312 C5 63 5 63 4 65 C1.9375 65.625 1.9375 65.625 0 66 C0 65.34 0 64.68 0 64 C-0.66 64 -1.32 64 -2 64 C-2.04949211 57.82528854 -2.08576343 51.65069295 -2.10986328 45.47583008 C-2.11991169 43.37587472 -2.13355266 41.27593331 -2.15087891 39.17602539 C-2.17517801 36.1550756 -2.18649482 33.13431105 -2.1953125 30.11328125 C-2.20563507 29.17664139 -2.21595764 28.24000153 -2.22659302 27.27497864 C-2.22738562 22.65493719 -2.00132043 19.24542073 0 15 C-0.00986248 11.44189587 -0.00986248 11.44189587 -0.4375 7.75 C-0.65892832 5.50308528 -0.85549043 3.2531696 -1 1 C-0.67 0.67 -0.34 0.34 0 0 Z " fill="#90DE38" transform="translate(141,136)"/>
<path d="M0 0 C23.69530938 -0.02333227 47.39061705 -0.04098079 71.08593559 -0.05181217 C82.08740497 -0.05697443 93.08886723 -0.0640158 104.09033203 -0.07543945 C113.67616312 -0.08538843 123.26198906 -0.09185394 132.84782517 -0.09408849 C137.92618392 -0.09539524 143.0045279 -0.0984788 148.08288193 -0.10573006 C152.85816745 -0.11249363 157.63343206 -0.11461627 162.40872192 -0.11310768 C164.16557046 -0.11338386 165.92241966 -0.11538699 167.67926407 -0.11920547 C170.06955785 -0.12414796 172.45977168 -0.12299621 174.85006714 -0.12025452 C175.55239405 -0.12316736 176.25472095 -0.1260802 176.97833049 -0.12908131 C181.77175758 -0.11412121 181.77175758 -0.11412121 184 1 C184 1.66 184 2.32 184 3 C183.34 3 182.68 3 182 3 C181.67 3.66 181.34 4.32 181 5 C180.67 4.34 180.34 3.68 180 3 C120.27 2.67 60.54 2.34 -1 2 C-0.67 1.34 -0.34 0.68 0 0 Z " fill="#DAF874" transform="translate(23,21)"/>
<path d="M0 0 C0.33 0 0.66 0 1 0 C1.061875 1.093125 1.12375 2.18625 1.1875 3.3125 C1.59639622 7.12136664 1.59639622 7.12136664 4.4375 8.75 C5.283125 9.1625 6.12875 9.575 7 10 C9.03412966 13.05119449 9.2788268 13.90876118 9.44921875 17.38671875 C9.49240234 18.24330078 9.53558594 19.09988281 9.58007812 19.98242188 C9.61552734 20.87509766 9.65097656 21.76777344 9.6875 22.6875 C9.73455078 23.56083984 9.78160156 24.43417969 9.83007812 25.33398438 C10.07450877 30.69943734 9.82184702 35.69198049 9 41 C10.26070312 40.98839844 11.52140625 40.97679687 12.8203125 40.96484375 C25.90971573 40.88408391 38.93065496 41.28853717 52 42 C52 42.33 52 42.66 52 43 C36.9324543 44.17998852 22.08402823 43.77883813 7 43 C7 42.34 7 41.68 7 41 C6.34 40.34 5.68 39.68 5 39 C5.0234375 36.8359375 5.0234375 36.8359375 5.375 34.375 C5.48585938 33.55773437 5.59671875 32.74046875 5.7109375 31.8984375 C5.80632813 31.27195313 5.90171875 30.64546875 6 30 C5.54625 30.495 5.0925 30.99 4.625 31.5 C3 33 3 33 1 33 C0.67 38.61 0.34 44.22 0 50 C-0.33 50 -0.66 50 -1 50 C-1.02507438 45.12939817 -1.04303343 40.25883547 -1.05493164 35.38818359 C-1.05990175 33.7377863 -1.06668017 32.08739326 -1.07543945 30.43701172 C-1.12815713 20.23459154 -0.91801813 10.16961238 0 0 Z " fill="#9BE03D" transform="translate(14,162)"/>
<path d="M0 0 C2.24973447 -0.054138 4.49984383 -0.09285491 6.75 -0.125 C8.00296875 -0.14820312 9.2559375 -0.17140625 10.546875 -0.1953125 C13.72820492 -0.01537302 15.36521896 0.31001418 18 2 C17 3 17 3 14.0625 3.125 C11 3 11 3 9 2 C9 2.99 9 3.98 9 5 C10.35919556 4.99214478 10.35919556 4.99214478 11.74584961 4.98413086 C36.84716971 4.86020084 61.90942629 5.27491694 87 6 C87 6.33 87 6.66 87 7 C60.27 7.33 33.54 7.66 6 8 C6 16.25 6 24.5 6 33 C5.67 33 5.34 33 5 33 C5 25.08 5 17.16 5 9 C3.35 9.33 1.7 9.66 0 10 C-0.33 43.99 -0.66 77.98 -1 113 C-1.33 113 -1.66 113 -2 113 C-2.0467206 98.85726412 -2.08185618 84.71454022 -2.10362434 70.57174301 C-2.11407085 64.0049955 -2.12824595 57.43829975 -2.15087891 50.87158203 C-2.17257624 44.53683207 -2.18456209 38.20213197 -2.18975449 31.86734772 C-2.19345583 29.44798243 -2.20068341 27.02861993 -2.21146011 24.60927582 C-2.22593355 21.2261104 -2.22797966 17.84315222 -2.22705078 14.45996094 C-2.23424133 13.45511154 -2.24143188 12.45026215 -2.24884033 11.41496277 C-2.246091 10.49232132 -2.24334167 9.56967987 -2.24050903 8.61907959 C-2.24235262 7.81896328 -2.24419621 7.01884697 -2.24609566 6.19448471 C-1.97198363 3.75017234 -1.21947642 2.1187478 0 0 Z " fill="#CFF74B" transform="translate(15,23)"/>
<path d="M0 0 C0 60.72 0 121.44 0 184 C52.47 184.495 52.47 184.495 106 185 C106 185.33 106 185.66 106 186 C92.19659113 186.02333058 78.3931853 186.04091354 64.58976078 186.05181217 C58.18100872 186.05704166 51.77226985 186.0641405 45.36352539 186.07543945 C39.18440559 186.08626599 33.00529852 186.09227634 26.82616997 186.09487724 C24.4629439 186.09673192 22.09971856 186.10035332 19.73649788 186.10573006 C16.43898104 186.11293738 13.14151753 186.11399107 9.84399414 186.11352539 C8.36261963 186.1189183 8.36261963 186.1189183 6.85131836 186.12442017 C5.95804337 186.1230455 5.06476837 186.12167084 4.14442444 186.12025452 C2.97328645 186.12163721 2.97328645 186.12163721 1.77848911 186.12304783 C0 186 0 186 -1 185 C-1.0976134 182.67232986 -1.12997765 180.37437981 -1.12025452 178.04624939 C-1.12110894 177.31035554 -1.12196337 176.57446169 -1.12284368 175.81626803 C-1.12450067 173.33183354 -1.11897356 170.84746545 -1.11352539 168.36303711 C-1.11324354 166.58951316 -1.11340121 164.81598909 -1.1139679 163.04246521 C-1.11425595 158.21208983 -1.1083579 153.38173906 -1.10139394 148.55136943 C-1.09516176 143.50914683 -1.09455671 138.46692373 -1.09336853 133.42469788 C-1.09025481 123.86949773 -1.08204088 114.31430897 -1.07201904 104.75911385 C-1.06085916 93.88384567 -1.05534777 83.00857695 -1.05032361 72.13330448 C-1.0398583 49.75553 -1.02225807 27.37776564 -1 5 C-1.66 5 -2.32 5 -3 5 C-3 3.68 -3 2.36 -3 1 C-1 0 -1 0 0 0 Z " fill="#A7D666" transform="translate(13,28)"/>
<path d="M0 0 C1.98 0 3.96 0 6 0 C4.68 0.33 3.36 0.66 2 1 C2.33 26.74 2.66 52.48 3 79 C17.39045565 78.92082681 17.39045565 78.92082681 31.78076172 78.81982422 C33.58040125 78.81398482 35.3800434 78.80888796 37.1796875 78.8046875 C38.11949463 78.79445557 39.05930176 78.78422363 40.02758789 78.77368164 C40.9206665 78.77343994 41.81374512 78.77319824 42.73388672 78.77294922 C43.51110077 78.768508 44.28831482 78.76406677 45.08908081 78.75949097 C47 79 47 79 49 81 C47.74340576 81.05534912 46.48681152 81.11069824 45.19213867 81.16772461 C40.53471113 81.37400473 35.87755447 81.58592535 31.22045898 81.79956055 C29.203927 81.89127274 27.18732463 81.98145041 25.1706543 82.07006836 C22.27372729 82.19763292 19.37709738 82.33069473 16.48046875 82.46484375 C15.12564644 82.52272316 15.12564644 82.52272316 13.74345398 82.58177185 C12.4824865 82.64172081 12.4824865 82.64172081 11.19604492 82.70288086 C10.45658127 82.73619003 9.71711761 82.76949921 8.95524597 82.80381775 C6.78629066 82.94904977 6.78629066 82.94904977 4 84 C2.68 83.67 1.36 83.34 0 83 C-0.33 80.03 -0.66 77.06 -1 74 C-1.66 74 -2.32 74 -3 74 C-2.67 73.01 -2.34 72.02 -2 71 C-1.34 71 -0.68 71 0 71 C0 47.57 0 24.14 0 0 Z " fill="#C4E66A" transform="translate(21,31)"/>
<path d="M0 0 C1.35106087 0.0001133 1.35106087 0.0001133 2.72941589 0.00022888 C3.69825211 0.00539017 4.66708832 0.01055145 5.6652832 0.01586914 C7.15714897 0.01799156 7.15714897 0.01799156 8.67915344 0.02015686 C11.85815428 0.02575779 15.03708488 0.03831043 18.21606445 0.05102539 C20.37036031 0.05604027 22.52465727 0.0606032 24.67895508 0.06469727 C29.9621822 0.07572751 35.24536831 0.09246653 40.52856445 0.11352539 C41.02356445 1.59852539 41.02356445 1.59852539 41.52856445 3.11352539 C26.67856445 3.11352539 11.82856445 3.11352539 -3.47143555 3.11352539 C-3.43204984 16.44032863 -3.43204984 16.44032863 -3.38134766 29.76708984 C-3.33731667 47.50470647 -3.33731667 47.50470647 -4.47143555 56.11352539 C-4.80143555 56.11352539 -5.13143555 56.11352539 -5.47143555 56.11352539 C-5.55445923 54.27407349 -5.55445923 54.27407349 -5.63916016 52.39746094 C-5.8454571 47.85184568 -6.05737304 43.30650684 -6.27099609 38.76123047 C-6.36270214 36.79320252 -6.45287999 34.82510275 -6.54150391 32.85693359 C-6.66908404 30.02950126 -6.80214062 27.20237197 -6.9362793 24.37524414 C-6.97486557 23.49390305 -7.01345184 22.61256195 -7.0532074 21.70451355 C-7.09317337 20.88388931 -7.13313934 20.06326508 -7.17431641 19.21777344 C-7.20762558 18.49607468 -7.24093475 17.77437592 -7.2752533 17.0308075 C-7.42350718 14.8939485 -7.42350718 14.8939485 -8.47143555 12.11352539 C-8.38621814 10.21400193 -8.2341447 8.31688966 -8.03393555 6.42602539 C-7.93209961 5.4321582 -7.83026367 4.43829102 -7.7253418 3.41430664 C-7.64155273 2.65504883 -7.55776367 1.89579102 -7.47143555 1.11352539 C-4.64131428 0.17015163 -2.92843637 -0.0082029 0 0 Z " fill="#BCE337" transform="translate(27.471435546875,118.886474609375)"/>
<path d="M0 0 C5.94 0 11.88 0 18 0 C18 0.33 18 0.66 18 1 C10.08 1.495 10.08 1.495 2 2 C2.00523682 3.80073975 2.01047363 5.60147949 2.01586914 7.45678711 C2.03205622 13.43583098 2.04351284 19.41486859 2.05181217 25.39392757 C2.05700968 29.01564201 2.06404981 32.63733253 2.07543945 36.2590332 C2.08638044 39.76035863 2.09230037 43.26166118 2.09487724 46.7630024 C2.09759827 48.73531474 2.10539217 50.707618 2.11329651 52.67991638 C2.11370054 59.20913644 1.88504639 65.52905528 1 72 C1.66228607 71.91869843 2.32457214 71.83739685 3.00692749 71.75363159 C11.92038656 70.70468777 20.74508302 71.10879664 29.6875 71.4375 C31.27536986 71.49085606 32.86326058 71.54359494 34.45117188 71.59570312 C38.30105847 71.72336321 42.15056727 71.85934213 46 72 C46.33 72.66 46.66 73.32 47 74 C40.46721214 74.02527002 33.93443679 74.04283292 27.40161133 74.05493164 C25.17732268 74.05997317 22.95303737 74.06680623 20.72875977 74.07543945 C17.53921691 74.08751298 14.34971771 74.09322996 11.16015625 74.09765625 C9.65860741 74.10539818 9.65860741 74.10539818 8.12672424 74.11329651 C7.20584518 74.11337204 6.28496613 74.11344757 5.33618164 74.11352539 C4.52121719 74.115746 3.70625275 74.11796661 2.86659241 74.12025452 C1 74 1 74 0 73 C-0.09439978 70.73008113 -0.11742226 68.45718033 -0.11352539 66.18530273 C-0.11367142 65.47314606 -0.11381744 64.76098938 -0.1139679 64.0272522 C-0.1132687 61.66266888 -0.10547606 59.29816339 -0.09765625 56.93359375 C-0.09579209 55.29834537 -0.09436818 53.66309643 -0.09336853 52.02784729 C-0.08954318 47.71565215 -0.07971275 43.40349048 -0.06866455 39.09130859 C-0.0584508 34.69434054 -0.05387099 30.29736711 -0.04882812 25.90039062 C-0.03809049 17.26690998 -0.02049356 8.63346301 0 0 Z " fill="#90BF5E" transform="translate(147,131)"/>
<path d="M0 0 C2.72286806 4.08430208 2.38524534 6.14590877 2 11 C1.01 11.66 0.02 12.32 -1 13 C-1 9.37 -1 5.74 -1 2 C-3.31 2 -5.62 2 -8 2 C-8 18.17 -8 34.34 -8 51 C-8.99 50.34 -9.98 49.68 -11 49 C-11.38095093 47.03334045 -11.38095093 47.03334045 -11.38818359 44.59790039 C-11.39764008 43.68677994 -11.40709656 42.77565948 -11.4168396 41.83692932 C-11.41076691 40.85046921 -11.40469421 39.86400909 -11.3984375 38.84765625 C-11.40130768 37.8365831 -11.40417786 36.82550995 -11.40713501 35.78379822 C-11.40917905 33.64272503 -11.40362553 31.50163331 -11.39111328 29.3605957 C-11.37508142 26.07916528 -11.39094234 22.79896975 -11.41015625 19.51757812 C-11.40817355 17.44010144 -11.40432933 15.36262553 -11.3984375 13.28515625 C-11.40451019 12.30072037 -11.41058289 11.31628448 -11.4168396 10.30201721 C-11.40738312 9.3877446 -11.39792664 8.47347198 -11.38818359 7.53149414 C-11.38579681 6.72700333 -11.38341003 5.92251251 -11.38095093 5.09364319 C-10.24057036 -1.17369949 -5.11936798 -0.48755885 0 0 Z " fill="#D1EF6B" transform="translate(80,59)"/>
<path d="M0 0 C5.39346988 -0.02464849 10.78690725 -0.04283531 16.18041992 -0.05493164 C18.01668875 -0.05997231 19.85295354 -0.06680477 21.68920898 -0.07543945 C24.32276401 -0.08751672 26.95626616 -0.09323081 29.58984375 -0.09765625 C30.41588608 -0.10281754 31.24192841 -0.10797882 32.09300232 -0.11329651 C34.06236368 -0.11349205 36.03161614 -0.06204152 38 0 C39.84601312 1.84601312 39.13741323 4.85305491 39.14526367 7.32397461 C39.14862228 7.98415085 39.1519809 8.64432709 39.15544128 9.32450867 C39.16497695 11.51713925 39.1668957 13.70969369 39.16796875 15.90234375 C39.17117955 17.4207004 39.17454349 18.93905673 39.17805481 20.45741272 C39.18405265 23.64438596 39.18589404 26.83133206 39.18530273 30.01831055 C39.18520108 34.108696 39.19885343 38.19890797 39.21607494 42.28925228 C39.22717571 45.42644556 39.22922254 48.56359666 39.22869301 51.70080757 C39.22987603 53.2091386 39.23431575 54.71747061 39.24202538 56.22578239 C39.25178662 58.33285659 39.24896282 60.43955098 39.24291992 62.54663086 C39.24434494 63.74718613 39.24576996 64.94774139 39.24723816 66.18467712 C39 69 39 69 37 71 C36.67 48.23 36.34 25.46 36 2 C24.12 2 12.24 2 0 2 C0 1.34 0 0.68 0 0 Z " fill="#A4D667" transform="translate(100,131)"/>
<path d="M0 0 C0.33 0 0.66 0 1 0 C1 24.42 1 48.84 1 74 C0.01 73.67 -0.98 73.34 -2 73 C-2.1157135 54.63893786 -2.02398534 36.29377614 -1.5625 17.9375 C-1.54285187 17.09314392 -1.52320374 16.24878784 -1.50296021 15.37884521 C-1.44626804 12.99066236 -1.38264569 10.60277867 -1.31640625 8.21484375 C-1.29968872 7.49663956 -1.28297119 6.77843536 -1.26574707 6.03846741 C-1.11521325 1.11521325 -1.11521325 1.11521325 0 0 Z " fill="#C3F16B" transform="translate(196,47)"/>
<path d="M0 0 C0.66 0 1.32 0 2 0 C2 7.26 2 14.52 2 22 C1.01 21.34 0.02 20.68 -1 20 C-1.33 20.99 -1.66 21.98 -2 23 C-2.66 23 -3.32 23 -4 23 C-3.690625 24.85625 -3.690625 24.85625 -3.375 26.75 C-2.79946687 30.20319878 -3.21810308 31.98029681 -5 35 C-5.16781295 32.39590255 -5.33429651 29.7917318 -5.5 27.1875 C-5.54769531 26.44951172 -5.59539062 25.71152344 -5.64453125 24.95117188 C-5.93382855 20.38440742 -6.06017205 15.99180057 -5.625 11.4375 C-5.55539063 10.65246094 -5.48578125 9.86742187 -5.4140625 9.05859375 C-5 7 -5 7 -3 5 C-1.06201737 2.22739701 -1.06201737 2.22739701 0 0 Z " fill="#BFF637" transform="translate(202,29)"/>
<path d="M0 0 C0.99 1.485 0.99 1.485 2 3 C-24.07 3 -50.14 3 -77 3 C-77.33 20.16 -77.66 37.32 -78 55 C-78.33 55 -78.66 55 -79 55 C-79.21876141 47.79223911 -79.41373987 40.58411872 -79.59204102 33.37524414 C-79.65554515 30.92197042 -79.72453246 28.46883235 -79.79907227 26.01586914 C-79.90515249 22.49386346 -79.9916286 18.9718437 -80.07421875 15.44921875 C-80.11157639 14.34913986 -80.14893402 13.24906097 -80.18742371 12.11564636 C-80.20767105 11.09481461 -80.2279184 10.07398285 -80.2487793 9.0222168 C-80.27320602 8.12286911 -80.29763275 7.22352142 -80.32279968 6.29692078 C-80 4 -80 4 -78.94078064 2.20640564 C-75.99205279 0.3734515 -73.06159916 0.61578476 -69.69873047 0.67529297 C-68.95862732 0.67646118 -68.21852417 0.67762939 -67.45599365 0.67883301 C-65.00944034 0.68602177 -62.56358408 0.71423103 -60.1171875 0.7421875 C-58.41993838 0.75032186 -56.72268163 0.75698578 -55.02542114 0.76223755 C-50.55732703 0.77936397 -46.0895356 0.81362687 -41.62158203 0.85229492 C-34.46245824 0.91147701 -27.30317878 0.94526894 -20.1438942 0.97806168 C-17.63710738 0.99207614 -15.1304704 1.01365824 -12.62374878 1.03634644 C-11.09666039 1.04636475 -9.56957099 1.05623037 -8.04248047 1.06591797 C-6.98895889 1.07838058 -6.98895889 1.07838058 -5.91415405 1.09109497 C-4.27583901 1.09871576 -2.63741315 1.05488564 -1 1 C-0.67 0.67 -0.34 0.34 0 0 Z " fill="#CFF856" transform="translate(192,27)"/>
<path d="M0 0 C41.58 0 83.16 0 126 0 C126 0.33 126 0.66 126 1 C125.14277344 1.06058594 124.28554687 1.12117187 123.40234375 1.18359375 C116.08350793 1.68709528 116.08350793 1.68709528 108.8125 2.625 C106 3 106 3 104 2 C102.60657835 1.89669098 101.20844519 1.8535652 99.81124878 1.84178162 C98.49451675 1.82709839 98.49451675 1.82709839 97.15118408 1.81211853 C96.18589783 1.80636307 95.22061157 1.8006076 94.22607422 1.79467773 C92.70407913 1.77982834 92.70407913 1.77982834 91.15133667 1.76467896 C87.78581097 1.73300331 84.42027113 1.70828255 81.0546875 1.68359375 C78.72583644 1.66302946 76.39698916 1.64203313 74.06814575 1.62062073 C67.92953545 1.56534584 61.79089117 1.51596047 55.65222168 1.46777344 C49.39181483 1.41759792 43.13145751 1.36189127 36.87109375 1.30664062 C24.58077145 1.1989928 12.2904062 1.09756258 0 1 C0 0.67 0 0.34 0 0 Z " fill="#A2E952" transform="translate(15,212)"/>
<path d="M0 0 C0.33 0 0.66 0 1 0 C1.16795977 7.65366695 1.32789923 15.3074709 1.48217773 22.96142578 C1.53565322 25.56693344 1.59098672 28.17240363 1.64819336 30.77783203 C1.72994957 34.51586832 1.80509304 38.253987 1.87890625 41.9921875 C1.90594131 43.16304901 1.93297638 44.33391052 1.96083069 45.54025269 C1.98092697 46.62122223 2.00102325 47.70219177 2.02172852 48.81591797 C2.04171402 49.77078094 2.06169952 50.72564392 2.08229065 51.70944214 C2 54 2 54 1 56 C-1.64 56 -4.28 56 -7 56 C-7 53.36 -7 50.72 -7 48 C-5.68 47.34 -4.36 46.68 -3 46 C-3 45.34 -3 44.68 -3 44 C-2.34 44 -1.68 44 -1 44 C-0.67 29.48 -0.34 14.96 0 0 Z " fill="#BBF343" transform="translate(112,34)"/>
<path d="M0 0 C0.66 0 1.32 0 2 0 C2.19945986 3.1660296 2.38234428 6.33281796 2.5625 9.5 C2.61857422 10.386875 2.67464844 11.27375 2.73242188 12.1875 C3.03215454 17.62265235 2.8483317 22.62094863 2 28 C3.26070312 27.98839844 4.52140625 27.97679687 5.8203125 27.96484375 C18.90971573 27.88408391 31.93065496 28.28853717 45 29 C45 29.33 45 29.66 45 30 C29.9324543 31.17998852 15.08402823 30.77883813 0 30 C0 29.34 0 28.68 0 28 C-0.66 27.34 -1.32 26.68 -2 26 C-1.72434959 23.99123721 -1.37339433 21.99290938 -1 20 C-0.73081786 16.54561492 -0.58810131 13.08636122 -0.4375 9.625 C-0.39431641 8.69816406 -0.35113281 7.77132812 -0.30664062 6.81640625 C-0.20123814 4.54439706 -0.09911394 2.27229075 0 0 Z " fill="#A1D655" transform="translate(21,175)"/>
<path d="M0 0 C2.21717015 3.32575522 2.24543438 4.3360624 2.22705078 8.20581055 C2.22689972 9.26668381 2.22674866 10.32755707 2.22659302 11.420578 C2.21627045 12.56440445 2.20594788 13.7082309 2.1953125 14.88671875 C2.1924826 16.05886429 2.18965271 17.23100983 2.18673706 18.43867493 C2.17552753 22.18838643 2.15042128 25.93786049 2.125 29.6875 C2.11497121 32.2272101 2.10584519 34.76692393 2.09765625 37.30664062 C2.07558567 43.53784165 2.04210039 49.76890386 2 56 C0.02 56.495 0.02 56.495 -2 57 C-2 48.55565957 -1.7782391 40.10950051 -1.62768555 31.66674805 C-1.58419777 29.17882348 -1.54253365 26.69086638 -1.50268555 24.20288086 C-1.44512456 20.62344041 -1.38141134 17.04415578 -1.31640625 13.46484375 C-1.29969376 12.34714096 -1.28298126 11.22943817 -1.26576233 10.0778656 C-1.24581711 9.04662064 -1.22587189 8.01537567 -1.20532227 6.95288086 C-1.18977798 6.04259628 -1.1742337 5.13231171 -1.15821838 4.19444275 C-1 2 -1 2 0 0 Z " fill="#8AD944" transform="translate(196,148)"/>
<path d="M0 0 C1.7623685 0.00503117 3.52473842 0.00959118 5.28710938 0.01367188 C9.54560866 0.02453533 13.80403809 0.04170829 18.0625 0.0625 C17.7325 1.0525 17.4025 2.0425 17.0625 3.0625 C-0.30303746 3.17709492 -17.5935886 3.07212478 -34.9375 2.0625 C-34.9375 1.7325 -34.9375 1.4025 -34.9375 1.0625 C-23.27413653 0.08365589 -11.6981537 -0.05888519 0 0 Z " fill="#BAE12F" transform="translate(78.9375,201.9375)"/>
<path d="M0 0 C14.85 0 29.7 0 45 0 C45.495 1.485 45.495 1.485 46 3 C41.05616687 3.0498757 36.11248401 3.08594211 31.16845703 3.10986328 C29.49069666 3.11984803 27.81295336 3.13344057 26.13525391 3.15087891 C17.16384543 3.24171508 8.75181721 3.26370832 0 1 C0 0.67 0 0.34 0 0 Z " fill="#CBF15D" transform="translate(23,119)"/>
<path d="M0 0 C0.66 0 1.32 0 2 0 C2.02740796 2.62507322 2.04703194 5.24984991 2.0625 7.875 C2.07087891 8.60203125 2.07925781 9.3290625 2.08789062 10.078125 C2.10495644 13.96912994 1.95520744 17.76356846 1.51367188 21.63085938 C0.96229104 26.95702103 0.7817834 32.2502119 0.68359375 37.6015625 C0.6524221 39.04527725 0.6524221 39.04527725 0.62062073 40.51815796 C0.55591207 43.55370851 0.49661125 46.58933583 0.4375 49.625 C0.3942397 51.69922628 0.35062319 53.77344516 0.30664062 55.84765625 C0.20031297 60.89836142 0.09883079 65.9491428 0 71 C-0.33 71 -0.66 71 -1 71 C-1.02322608 62.7763349 -1.04096727 54.55268364 -1.05181217 46.3289938 C-1.0570186 42.50992609 -1.06407535 38.69088091 -1.07543945 34.87182617 C-1.08634821 31.18247826 -1.0922937 27.49315194 -1.09487724 23.80378914 C-1.09671714 22.40007246 -1.10030989 20.99635688 -1.10573006 19.59264946 C-1.11304655 17.6183374 -1.11340896 15.64400335 -1.11352539 13.66967773 C-1.115746 12.54826889 -1.11796661 11.42686005 -1.12025452 10.27146912 C-0.99227378 6.78981162 -0.54967698 3.43825905 0 0 Z " fill="#9FE14E" transform="translate(205,113)"/>
<path d="M0 0 C0.33 0 0.66 0 1 0 C1 4.95 1 9.9 1 15 C0.01 14.67 -0.98 14.34 -2 14 C-1.773125 14.5775 -1.54625 15.155 -1.3125 15.75 C-1 18 -1 18 -2.3125 20.25 C-2.869375 20.8275 -3.42625 21.405 -4 22 C-4.66 22 -5.32 22 -6 22 C-6.10823773 19.75106046 -6.18569645 17.50062425 -6.25 15.25 C-6.29640625 13.99703125 -6.3428125 12.7440625 -6.390625 11.453125 C-5.93528028 7.42787769 -5.0594145 6.50315732 -2 4 C-0.76487921 1.86690808 -0.76487921 1.86690808 0 0 Z " fill="#97E237" transform="translate(203,128)"/>
<path d="M0 0 C26.68453251 -0.14455326 53.32664866 0.2213974 80 1 C80 1.33 80 1.66 80 2 C40.895 2.495 40.895 2.495 1 3 C0.67 2.01 0.34 1.02 0 0 Z " fill="#D5F64D" transform="translate(22,28)"/>
<path d="M0 0 C1.20079193 0.03014442 1.20079193 0.03014442 2.42584229 0.06089783 C3.28014832 0.08793289 4.13445435 0.11496796 5.01464844 0.14282227 C5.89683044 0.16643326 6.77901245 0.19004425 7.68792725 0.21437073 C10.50013052 0.29082348 13.31204558 0.37492682 16.12402344 0.45922852 C18.03286359 0.51246761 19.94171773 0.56520789 21.85058594 0.61743164 C26.52524694 0.74641372 31.19966412 0.88225677 35.87402344 1.02172852 C36.36902344 2.01172852 36.36902344 2.01172852 36.87402344 3.02172852 C21.69402344 3.02172852 6.51402344 3.02172852 -9.12597656 3.02172852 C-8.12597656 1.02172852 -8.12597656 1.02172852 -6.3213501 0.39808655 C-4.14239464 0.02454311 -2.20730559 -0.0628663 0 0 Z " fill="#8BC956" transform="translate(157.1259765625,201.978271484375)"/>
<path d="M0 0 C2.31 0 4.62 0 7 0 C7 8.58 7 17.16 7 26 C6.67 26 6.34 26 6 26 C5.67 18.41 5.34 10.82 5 3 C4.01 2.67 3.02 2.34 2 2 C2.00523682 2.67877197 2.01047363 3.35754395 2.01586914 4.05688477 C2.10071529 16.74621738 2.15149772 29.3540875 1 42 C0.67 42 0.34 42 0 42 C0 28.14 0 14.28 0 0 Z " fill="#BFF444" transform="translate(72,61)"/>
<path d="M0 0 C0 0.99 0 1.98 0 3 C-2 5 -2 5 -5.89892578 5.13525391 C-7.58135236 5.09286789 -9.26351768 5.03918783 -10.9453125 4.9765625 C-11.8303244 4.95153656 -12.7153363 4.92651062 -13.62716675 4.90072632 C-16.46016056 4.81840545 -19.29246968 4.72186323 -22.125 4.625 C-24.04294058 4.56677276 -25.96090943 4.50946923 -27.87890625 4.453125 C-32.5863329 4.31280872 -37.29319386 4.15973467 -42 4 C-42 3.34 -42 2.68 -42 2 C-37.60431345 1.82931136 -33.20843299 1.66420951 -28.8125 1.5 C-27.58595703 1.45230469 -26.35941406 1.40460938 -25.09570312 1.35546875 C-17.86215923 1.0882666 -10.65889794 0.97018298 -3.4206543 1.08007812 C-1.04985951 1.27763985 -1.04985951 1.27763985 0 0 Z " fill="#93CF4B" transform="translate(138,201)"/>
<path d="M0 0 C0.33 0 0.66 0 1 0 C1 19.14 1 38.28 1 58 C-3 60 -3 60 -6.25 59.125 C-7.1575 58.75375 -8.065 58.3825 -9 58 C-8.34 57.34 -7.68 56.68 -7 56 C-5.02 56.33 -3.04 56.66 -1 57 C-0.67 38.19 -0.34 19.38 0 0 Z " fill="#CAE981" transform="translate(114,33)"/>
<path d="M0 0 C0.33 0 0.66 0 1 0 C1 23.76 1 47.52 1 72 C0.67 72 0.34 72 0 72 C-0.13064343 63.18571696 -0.2610495 54.37143045 -0.39115143 45.5571394 C-0.45156851 41.4644421 -0.51206777 37.37174605 -0.57275391 33.27905273 C-0.63130159 29.33037405 -0.68963463 25.38169226 -0.74781799 21.43300819 C-0.7700687 19.92550862 -0.79239714 18.41801019 -0.81480408 16.91051292 C-0.84614203 14.80126614 -0.87720519 12.69201548 -0.90820312 10.58276367 C-0.92596802 9.38141281 -0.94373291 8.18006195 -0.96203613 6.94230652 C-0.98759191 4.96166212 -1 2.98080926 -1 1 C-0.67 0.67 -0.34 0.34 0 0 Z " fill="#99DD50" transform="translate(146,131)"/>
<path d="M0 0 C6.08722746 -0.04934154 12.1743392 -0.08569167 18.26171875 -0.10986328 C20.33367947 -0.11993712 22.40562593 -0.13359666 24.47753906 -0.15087891 C27.45120764 -0.17506664 30.4246887 -0.18646908 33.3984375 -0.1953125 C34.32868744 -0.20563507 35.25893738 -0.21595764 36.21737671 -0.22659302 C37.07811798 -0.22674408 37.93885925 -0.22689514 38.82568359 -0.22705078 C39.58513275 -0.231492 40.34458191 -0.23593323 41.12704468 -0.24050903 C43 0 43 0 45 2 C36.00104184 2.36611213 27.00125938 2.69591241 18 3 C17.14583496 3.03158203 16.29166992 3.06316406 15.41162109 3.09570312 C13.46242406 3.16377448 11.51244304 3.20846767 9.5625 3.25 C8.55316406 3.27578125 7.54382812 3.3015625 6.50390625 3.328125 C3.53018364 2.9384328 2.30225579 1.8476586 0 0 Z " fill="#D1F574" transform="translate(25,110)"/>
<path d="M0 0 C17.16 0 34.32 0 52 0 C52 0.33 52 0.66 52 1 C50.71416016 1.09087891 50.71416016 1.09087891 49.40234375 1.18359375 C42.08350793 1.68709528 42.08350793 1.68709528 34.8125 2.625 C32 3 32 3 30 2 C27.75025839 1.84504237 25.49628464 1.74989072 23.2421875 1.68359375 C22.57913605 1.66281265 21.91608459 1.64203156 21.23294067 1.62062073 C19.11373306 1.55520769 16.994401 1.49627895 14.875 1.4375 C13.43878919 1.39430691 12.00259098 1.35069236 10.56640625 1.30664062 C7.04440406 1.19953501 3.52226175 1.09824425 0 1 C0 0.67 0 0.34 0 0 Z " fill="#96E050" transform="translate(89,212)"/>
<path d="M0 0 C0.33 0.99 0.66 1.98 1 3 C0.33333333 4.33333333 -0.33333333 5.66666667 -1 7 C-1.28480806 9.0742625 -1.48874224 11.16071439 -1.625 13.25 C-1.69976562 14.32765625 -1.77453125 15.4053125 -1.8515625 16.515625 C-1.90054688 17.33546875 -1.94953125 18.1553125 -2 19 C-2.33 19 -2.66 19 -3 19 C-3 13.39 -3 7.78 -3 2 C-12.24 2 -21.48 2 -31 2 C-31 1.67 -31 1.34 -31 1 C-26.77089482 0.83174865 -22.54170681 0.66567565 -18.3125 0.5 C-17.11431641 0.45230469 -15.91613281 0.40460938 -14.68164062 0.35546875 C-13.52470703 0.31035156 -12.36777344 0.26523438 -11.17578125 0.21875 C-9.58117065 0.1559082 -9.58117065 0.1559082 -7.9543457 0.09179688 C-5.30023521 0.00932885 -2.65511397 -0.01717131 0 0 Z " fill="#A7E84C" transform="translate(199,129)"/>
<path d="M0 0 C0.33 0 0.66 0 1 0 C1 16.17 1 32.34 1 49 C0.67 49 0.34 49 0 49 C-0.02505615 47.71834961 -0.0501123 46.43669922 -0.07592773 45.11621094 C-0.17011595 40.3600875 -0.2703089 35.60410621 -0.37231445 30.84814453 C-0.41562009 28.78991013 -0.45729829 26.73164082 -0.49731445 24.67333984 C-0.55512275 21.71441121 -0.61878696 18.7556576 -0.68359375 15.796875 C-0.70030624 14.87694763 -0.71701874 13.95702026 -0.73423767 13.00921631 C-0.75418289 12.1486261 -0.77412811 11.28803589 -0.79467773 10.40136719 C-0.81022202 9.64635925 -0.8257663 8.89135132 -0.84178162 8.11346436 C-0.92744414 5.96590282 -0.92744414 5.96590282 -1.63783264 3.84991455 C-1.81710548 2.93420685 -1.81710548 2.93420685 -2 2 C-1.34 1.34 -0.68 0.68 0 0 Z " fill="#B5F05C" transform="translate(71,121)"/>
<path d="M0 0 C0 15.84 0 31.68 0 48 C-0.33 48 -0.66 48 -1 48 C-1 33.81 -1 19.62 -1 5 C-1.66 5 -2.32 5 -3 5 C-3 3.68 -3 2.36 -3 1 C-1 0 -1 0 0 0 Z " fill="#C7E76F" transform="translate(13,28)"/>
<path d="M0 0 C0.66 0 1.32 0 2 0 C2.66 2.64 3.32 5.28 4 8 C9.61 8.33 15.22 8.66 21 9 C21 9.33 21 9.66 21 10 C20.25234375 10.04898438 19.5046875 10.09796875 18.734375 10.1484375 C17.25710937 10.26058594 17.25710937 10.26058594 15.75 10.375 C14.77546875 10.44460937 13.8009375 10.51421875 12.796875 10.5859375 C10.02536139 10.83995163 10.02536139 10.83995163 7.890625 12.1015625 C6 13 6 13 2 12 C1.67 9.03 1.34 6.06 1 3 C0.34 3 -0.32 3 -1 3 C-0.67 2.01 -0.34 1.02 0 0 Z " fill="#BFF053" transform="translate(19,102)"/>
<path d="M0 0 C0.33 0 0.66 0 1 0 C1.94242818 9.03721311 2.11157151 17.92551747 2 27 C-0.97 27 -3.94 27 -7 27 C-7 26.67 -7 26.34 -7 26 C-5.02 25.67 -3.04 25.34 -1 25 C-0.67 16.75 -0.34 8.5 0 0 Z " fill="#ABE452" transform="translate(79,144)"/>
<path d="M0 0 C0.33 0 0.66 0 1 0 C1.06058594 1.05058594 1.12117187 2.10117188 1.18359375 3.18359375 C1.61546473 10.48282152 2.09263954 17.74111635 3 25 C2.34 25 1.68 25 1 25 C1 27.31 1 29.62 1 32 C0.67 32 0.34 32 0 32 C0 21.44 0 10.88 0 0 Z " fill="#BBF449" transform="translate(204,88)"/>
<path d="M0 0 C2.05078125 0.03255208 4.1015625 0.06510417 6.15234375 0.09765625 C5.82234375 1.08765625 5.49234375 2.07765625 5.15234375 3.09765625 C-4.74765625 3.09765625 -14.64765625 3.09765625 -24.84765625 3.09765625 C-24.84765625 2.76765625 -24.84765625 2.43765625 -24.84765625 2.09765625 C-23.85584351 2.06007202 -23.85584351 2.06007202 -22.84399414 2.02172852 C-19.8658332 1.90612523 -16.88801705 1.78323871 -13.91015625 1.66015625 C-12.3487793 1.60118164 -12.3487793 1.60118164 -10.75585938 1.54101562 C-9.27182617 1.47817383 -9.27182617 1.47817383 -7.7578125 1.4140625 C-6.38314819 1.35907593 -6.38314819 1.35907593 -4.98071289 1.30297852 C-2.58566128 1.07243732 -2.3181574 0.12252418 0 0 Z " fill="#AFDF38" transform="translate(90.84765625,201.90234375)"/>
<path d="M0 0 C1.27875 -0.061875 2.5575 -0.12375 3.875 -0.1875 C4.95394531 -0.23970703 4.95394531 -0.23970703 6.0546875 -0.29296875 C6.69664063 -0.19628906 7.33859375 -0.09960938 8 0 C10.72286806 4.08430208 10.38524534 6.14590877 10 11 C9.01 11.66 8.02 12.32 7 13 C7 9.37 7 5.74 7 2 C4.69 2 2.38 2 0 2 C0 1.34 0 0.68 0 0 Z " fill="#D8F175" transform="translate(72,59)"/>
<path d="M0 0 C2.64 0 5.28 0 8 0 C7.67 0.66 7.34 1.32 7 2 C6.01 2 5.02 2 4 2 C3.67 8.27 3.34 14.54 3 21 C2.67 21 2.34 21 2 21 C1.93941406 20.154375 1.87882812 19.30875 1.81640625 18.4375 C1.36040967 12.2640078 0.84179888 6.13310616 0 0 Z " fill="#B5E258" transform="translate(20,120)"/>
<path d="M0 0 C0.33 0 0.66 0 1 0 C1.06058594 1.05960938 1.12117187 2.11921875 1.18359375 3.2109375 C1.26800127 4.59897221 1.35264917 5.98699232 1.4375 7.375 C1.47681641 8.07367188 1.51613281 8.77234375 1.55664062 9.4921875 C1.74280134 13.37360492 1.74280134 13.37360492 3 17 C1.68 17.33 0.36 17.66 -1 18 C-1 17.01 -1 16.02 -1 15 C-1.01160156 14.23945313 -1.02320313 13.47890625 -1.03515625 12.6953125 C-1.12531969 4.21994885 -1.12531969 4.21994885 0 0 Z " fill="#9CD830" transform="translate(195,187)"/>
<path d="M0 0 C0.99 0 1.98 0 3 0 C3 0.99 3 1.98 3 3 C3.99 3 4.98 3 6 3 C6 3.66 6 4.32 6 5 C6.66 5 7.32 5 8 5 C8 5.66 8 6.32 8 7 C5.36 7 2.72 7 0 7 C0 4.69 0 2.38 0 0 Z " fill="#AEEF41" transform="translate(100,123)"/>
<path d="M0 0 C0.33 0 0.66 0 1 0 C1 8.58 1 17.16 1 26 C0.67 26 0.34 26 0 26 C-0.16777857 22.39588419 -0.33403188 18.7916996 -0.5 15.1875 C-0.54769531 14.16333984 -0.59539062 13.13917969 -0.64453125 12.08398438 C-0.68964844 11.10107422 -0.73476562 10.11816406 -0.78125 9.10546875 C-0.82314453 8.19949951 -0.86503906 7.29353027 -0.90820312 6.36010742 C-0.97765497 4.57449311 -1 2.78696447 -1 1 C-0.67 0.67 -0.34 0.34 0 0 Z " fill="#ABE851" transform="translate(146,131)"/>
<path d="M0 0 C0 6.6 0 13.2 0 20 C-0.33 20 -0.66 20 -1 20 C-1 15.05 -1 10.1 -1 5 C-1.66 5 -2.32 5 -3 5 C-3 3.68 -3 2.36 -3 1 C-1 0 -1 0 0 0 Z " fill="#9DAC50" transform="translate(13,28)"/>
<path d="M0 0 C0.33 0 0.66 0 1 0 C1.09765625 6.15234375 1.09765625 6.15234375 1 8 C0 9 0 9 -3.0625 9.0625 C-4.031875 9.041875 -5.00125 9.02125 -6 9 C-6 7.35 -6 5.7 -6 4 C-5.01 4.495 -5.01 4.495 -4 5 C-4 5.66 -4 6.32 -4 7 C-2.68 7 -1.36 7 0 7 C0 4.69 0 2.38 0 0 Z " fill="#A1E440" transform="translate(78,161)"/>
<path d="M0 0 C2.23551759 3.35327639 2.17283528 3.90743657 1.625 7.6875 C1.51414063 8.49574219 1.40328125 9.30398437 1.2890625 10.13671875 C1.19367188 10.75160156 1.09828125 11.36648437 1 12 C0.34 12 -0.32 12 -1 12 C-1.02698189 10.37509046 -1.04638757 8.75005367 -1.0625 7.125 C-1.07410156 6.22007812 -1.08570313 5.31515625 -1.09765625 4.3828125 C-1 2 -1 2 0 0 Z " fill="#96DB4C" transform="translate(196,148)"/>
<path d="M0 0 C2 2 2 2 2.1953125 5.0390625 C2.17210937 6.22242188 2.14890625 7.40578125 2.125 8.625 C2.10695313 9.81351563 2.08890625 11.00203125 2.0703125 12.2265625 C2.04710937 13.14179688 2.02390625 14.05703125 2 15 C1.67 15 1.34 15 1 15 C0.855625 13.906875 0.71125 12.81375 0.5625 11.6875 C0.11711896 8.06877013 0.11711896 8.06877013 -1 5 C-0.5625 2.3125 -0.5625 2.3125 0 0 Z " fill="#B2ED4C" transform="translate(20,126)"/>
<path d="M0 0 C-0.33 0.99 -0.66 1.98 -1 3 C-4.3 3 -7.6 3 -11 3 C-10 1 -10 1 -8.3125 0.375 C-5.51555886 -0.07855802 -2.82858003 -0.06428591 0 0 Z " fill="#9DD83D" transform="translate(159,202)"/>
<path d="M0 0 C2 2 2 2 2.125 4.625 C2.08375 5.40875 2.0425 6.1925 2 7 C-0.97 7 -3.94 7 -7 7 C-7 6.67 -7 6.34 -7 6 C-5.02 5.67 -3.04 5.34 -1 5 C-0.67 3.35 -0.34 1.7 0 0 Z " fill="#B6E66F" transform="translate(79,164)"/>
<path d="M0 0 C0.33 0 0.66 0 1 0 C1 3.96 1 7.92 1 12 C0.67 12 0.34 12 0 12 C-0.38897161 10.37828761 -0.76078298 8.75245075 -1.125 7.125 C-1.43824219 5.76761719 -1.43824219 5.76761719 -1.7578125 4.3828125 C-1.83773437 3.59648438 -1.91765625 2.81015625 -2 2 C-1.34 1.34 -0.68 0.68 0 0 Z " fill="#C6F15B" transform="translate(71,121)"/>
<path d="M0 0 C0.66 0.66 1.32 1.32 2 2 C0.75 4 0.75 4 -1 6 C-2.32 6 -3.64 6 -5 6 C-4.67 5.01 -4.34 4.02 -4 3 C-1.9375 2.3125 -1.9375 2.3125 0 2 C0 1.34 0 0.68 0 0 Z " fill="#6CCD33" transform="translate(198,202)"/>
<path d="M0 0 C2.64 0.33 5.28 0.66 8 1 C8 1.66 8 2.32 8 3 C5.36 3 2.72 3 0 3 C0 2.01 0 1.02 0 0 Z " fill="#D6FA31" transform="translate(24,25)"/>
<path d="M0 0 C1.32 0.33 2.64 0.66 4 1 C3.67 2.32 3.34 3.64 3 5 C1.35 4.67 -0.3 4.34 -2 4 C-1.34 2.68 -0.68 1.36 0 0 Z " fill="#D2F53D" transform="translate(203,24)"/>
<path d="M0 0 C2.97 0.495 2.97 0.495 6 1 C5.67 1.66 5.34 2.32 5 3 C1.9375 3.625 1.9375 3.625 -1 4 C-0.67 2.68 -0.34 1.36 0 0 Z " fill="#C5D547" transform="translate(15,23)"/>
<path d="M0 0 C2 1 2 1 2 1 Z " fill="#B2B27F" transform="translate(24,19)"/>
</svg>
